<svg width="147" height="30" viewBox="0 0 147 30" fill="none" xmlns="http://www.w3.org/2000/svg">
<path d="M46.1718 7.14551V28.4017C43.8231 28.4017 41.9191 26.4977 41.9191 24.149V19.3572H32.8367V24.149C32.8367 26.4977 30.9327 28.4017 28.584 28.4017V7.14551C30.9327 7.14551 32.8367 9.04949 32.8367 11.3982V15.8855H41.9191V11.3982C41.9191 9.04949 43.8231 7.14551 46.1718 7.14551Z" fill="#5B2E4F"/>
<path d="M66.0013 19.6008C66.0013 20.2098 65.9608 20.758 65.8798 21.2453H53.5775C53.6787 22.4634 54.104 23.4176 54.8533 24.1078C55.6025 24.7981 56.5239 25.1432 57.6175 25.1432C59.1971 25.1432 60.321 24.4631 60.9893 23.1029H65.5761C65.09 24.727 64.1585 26.067 62.7814 27.1227C61.4044 28.1581 59.7135 28.6758 57.7086 28.6758C56.0886 28.6758 54.6305 28.3205 53.3344 27.6099C52.0586 26.8791 51.0562 25.8538 50.3272 24.5342C49.6184 23.2145 49.264 21.6919 49.264 19.9662C49.264 18.2203 49.6184 16.6875 50.3272 15.3678C51.036 14.0482 52.0283 13.0331 53.3041 12.3225C54.5799 11.6119 56.0481 11.2567 57.7086 11.2567C59.3084 11.2567 60.7361 11.6018 61.9917 12.2921C63.2675 12.9823 64.2496 13.967 64.9382 15.246C65.6469 16.5047 66.0013 17.9563 66.0013 19.6008ZM61.5968 18.3827C61.5765 17.2864 61.1816 16.4134 60.4121 15.7637C59.6426 15.0937 58.7009 14.7588 57.5871 14.7588C56.5341 14.7588 55.643 15.0836 54.914 15.7333C54.2052 16.3626 53.7698 17.2458 53.6078 18.3827H61.5968Z" fill="#5B2E4F"/>
<path d="M73.3581 14.1497C73.9048 13.2564 74.6136 12.556 75.4844 12.0484C76.3754 11.5409 77.388 11.2871 78.522 11.2871V15.7637H77.3981C76.0616 15.7637 75.049 16.0784 74.3605 16.7078C73.6922 17.3371 73.3581 18.4334 73.3581 19.9967V28.4017H69.1054V11.5307H73.3581V14.1497Z" fill="#5B2E4F"/>
<path d="M100.432 7.14551L93.5431 25.9769C93.0103 27.4332 91.6247 28.4017 90.074 28.4017C88.5233 28.4017 87.1377 27.4332 86.6049 25.9769L79.7157 7.14551H79.9769C82.5473 7.14551 84.8348 8.77599 85.6733 11.2058L90.1044 24.0469L94.5093 11.215C95.345 8.78044 97.6348 7.14551 100.209 7.14551H100.432Z" fill="#5B2E4F"/>
<path d="M118.626 19.6008C118.626 20.2098 118.585 20.758 118.504 21.2453H106.202C106.303 22.4634 106.728 23.4176 107.478 24.1078C108.227 24.7981 109.148 25.1432 110.242 25.1432C110.389 25.1432 110.532 25.1374 110.67 25.1256C112.96 24.932 115.069 23.1029 117.367 23.1029H118.201C117.714 24.727 116.783 26.067 115.406 27.1227C114.029 28.1581 112.338 28.6758 110.333 28.6758C108.713 28.6758 107.255 28.3205 105.959 27.6099C104.683 26.8791 103.681 25.8538 102.952 24.5342C102.243 23.2145 101.888 21.6919 101.888 19.9662C101.888 18.2203 102.243 16.6875 102.952 15.3678C103.66 14.0482 104.653 13.0331 105.929 12.3225C107.204 11.6119 108.672 11.2567 110.333 11.2567C111.933 11.2567 113.361 11.6018 114.616 12.2921C115.892 12.9823 116.874 13.967 117.563 15.246C118.271 16.5047 118.626 17.9563 118.626 19.6008ZM114.221 18.3827C114.201 17.2864 113.806 16.4134 113.037 15.7637C112.267 15.0937 111.325 14.7588 110.212 14.7588C109.159 14.7588 108.267 15.0836 107.538 15.7333C106.83 16.3626 106.394 17.2458 106.232 18.3827H114.221Z" fill="#5B2E4F"/>
<path d="M128.17 28.6758C126.793 28.6758 125.557 28.4322 124.464 27.9449C123.37 27.4374 122.499 26.7572 121.851 25.9046C121.224 25.0519 120.879 24.1078 120.819 23.0724H125.102C125.183 23.7221 125.497 24.2601 126.043 24.6864C126.61 25.1128 127.309 25.326 128.139 25.326C128.949 25.326 129.577 25.1635 130.023 24.8387C130.488 24.5139 130.721 24.0977 130.721 23.5901C130.721 23.042 130.438 22.6359 129.871 22.372C129.324 22.0878 128.443 21.7833 127.228 21.4584C125.972 21.1539 124.94 20.8392 124.13 20.5144C123.34 20.1895 122.651 19.6921 122.064 19.0222C121.497 18.3522 121.213 17.4488 121.213 16.3119C121.213 15.378 121.477 14.5253 122.003 13.7538C122.55 12.9823 123.32 12.3733 124.312 11.9266C125.324 11.48 126.509 11.2567 127.866 11.2567C129.871 11.2567 131.47 11.7642 132.665 12.7793C133.86 13.7741 134.518 15.1242 134.64 16.8296H130.569C130.509 16.1596 130.225 15.6317 129.719 15.246C129.233 14.84 128.575 14.6369 127.744 14.6369C126.975 14.6369 126.377 14.7791 125.952 15.0633C125.547 15.3475 125.345 15.7434 125.345 16.251C125.345 16.8194 125.628 17.2559 126.195 17.5604C126.762 17.8447 127.643 18.139 128.838 18.4436C130.053 18.7481 131.055 19.0628 131.845 19.3876C132.635 19.7125 133.313 20.22 133.88 20.9103C134.468 21.5802 134.771 22.4735 134.792 23.5901C134.792 24.5646 134.518 25.4376 133.971 26.2091C133.445 26.9806 132.675 27.5896 131.663 28.0363C130.671 28.4626 129.506 28.6758 128.17 28.6758Z" fill="#5B2E4F"/>
<path d="M143.234 15.0328V23.1942C143.234 23.7627 143.365 24.1789 143.629 24.4428C143.912 24.6864 144.378 24.8083 145.026 24.8083H147V28.4017H144.327C140.743 28.4017 138.951 26.6557 138.951 23.1638V15.0328H136.946V11.5307H138.951V7.35868H139.062C141.366 7.35868 143.234 9.22657 143.234 11.5307H147V15.0328H143.234Z" fill="#5B2E4F"/>
<path fill-rule="evenodd" clip-rule="evenodd" d="M1.93444 3.60285C1.93444 2.68088 2.68184 1.93349 3.6038 1.93349C4.52576 1.93349 5.27316 2.68088 5.27316 3.60285C5.27316 4.52481 4.52576 5.2722 3.6038 5.2722C2.68184 5.2722 1.93444 4.52481 1.93444 3.60285ZM7.20664 3.60285C7.20664 5.31771 6.00855 6.75275 4.40375 7.11657V9.1272H7.20569V10.8085H4.40375V12.8192C6.00857 13.183 7.20669 14.618 7.20669 16.3329C7.20669 18.3227 5.59364 19.9357 3.60384 19.9357C1.61405 19.9357 0.000998114 18.3227 0.000998114 16.3329C0.000998114 14.6472 1.15871 13.2318 2.72242 12.8386V10.8085H0L7.34926e-08 9.1272H2.72242V7.0971C1.15869 6.70391 0.000953601 5.28858 0.000953601 3.60285C0.000953601 1.61305 1.614 0 3.6038 0C5.5936 0 7.20664 1.61305 7.20664 3.60285ZM16.3336 16.3329C16.3336 18.3227 14.7205 19.9357 12.7307 19.9357C10.7409 19.9357 9.12786 18.3227 9.12786 16.3329C9.12786 14.3431 10.7409 12.73 12.7307 12.73C14.7205 12.73 16.3336 14.3431 16.3336 16.3329ZM7.20669 25.4601C7.20669 27.4499 5.59364 29.0629 3.60384 29.0629C1.61405 29.0629 0.000998114 27.4499 0.000998114 25.4601C0.000998114 23.4703 1.61405 21.8572 3.60384 21.8572C5.59364 21.8572 7.20669 23.4703 7.20669 25.4601ZM12.7307 29.0629C14.7205 29.0629 16.3336 27.4499 16.3336 25.4601C16.3336 23.4703 14.7205 21.8572 12.7307 21.8572C10.7409 21.8572 9.12786 23.4703 9.12786 25.4601C9.12786 27.4499 10.7409 29.0629 12.7307 29.0629Z" fill="#5B2E4F"/>
</svg>
