<svg width="360" height="390" viewBox="0 0 360 390" fill="none" xmlns="http://www.w3.org/2000/svg">
<path d="M331.524 200.885C327.017 203.598 321.767 204.814 316.526 204.359C311.286 203.904 306.324 201.802 302.352 198.353C298.38 194.905 295.601 190.287 294.415 185.162C293.229 180.038 293.695 174.669 295.748 169.826C297.801 164.983 301.334 160.914 305.842 158.202C310.349 155.491 315.6 154.276 320.84 154.733C326.08 155.189 331.042 157.292 335.013 160.742C338.984 164.191 341.761 168.809 342.947 173.934C344.139 179.057 343.676 184.427 341.623 189.27C339.571 194.112 336.035 198.179 331.524 200.885Z" fill="#EBEBEB"/>
<path d="M326.294 176.794C326.275 178.292 325.813 179.75 324.965 180.985C324.118 182.22 322.923 183.176 321.533 183.732C320.142 184.289 318.618 184.42 317.152 184.11C315.687 183.8 314.346 183.063 313.3 181.991C312.253 180.92 311.548 179.562 311.273 178.09C310.998 176.617 311.166 175.096 311.755 173.719C312.344 172.342 313.329 171.171 314.583 170.353C315.838 169.535 317.307 169.108 318.805 169.125C319.8 169.136 320.784 169.343 321.699 169.735C322.615 170.126 323.444 170.694 324.139 171.407C324.835 172.119 325.383 172.962 325.753 173.886C326.123 174.81 326.307 175.799 326.294 176.794Z" fill="white"/>
<path d="M331.559 197.758V200.885C327.595 203.267 323.045 204.499 318.42 204.441C313.795 204.383 309.277 203.039 305.373 200.558L305.416 197.441C305.437 195.722 305.796 194.024 306.473 192.444C307.15 190.864 308.132 189.433 309.362 188.232C310.592 187.031 312.047 186.085 313.643 185.446C315.239 184.808 316.945 184.49 318.664 184.511C320.383 184.532 322.081 184.891 323.661 185.568C325.241 186.245 326.672 187.227 327.872 188.457C329.073 189.687 330.02 191.141 330.658 192.737C331.297 194.333 331.615 196.04 331.594 197.758H331.559Z" fill="white"/>
<path d="M51.4969 126.758C48.897 128.323 45.9122 129.131 42.8779 129.094C39.8436 129.056 36.8799 128.172 34.3199 126.543C31.3256 124.637 29.0344 121.807 27.7935 118.482C26.5526 115.157 26.4297 111.517 27.4434 108.116C28.4572 104.714 30.5523 101.736 33.4112 99.6328C36.2701 97.5294 39.7368 96.4154 43.2858 96.4598C46.8348 96.5041 50.2726 97.7044 53.078 99.8786C55.8834 102.053 57.9034 105.082 58.8318 108.508C59.7602 111.934 59.5464 115.569 58.2228 118.862C56.8991 122.155 54.5379 124.927 51.4969 126.758Z" fill="#EBEBEB"/>
<path d="M48.0687 110.972C48.0584 111.954 47.757 112.911 47.2027 113.722C46.6484 114.533 45.866 115.161 44.9546 115.527C44.0432 115.893 43.0437 115.98 42.0826 115.778C41.1215 115.576 40.2419 115.093 39.5553 114.391C38.8687 113.688 38.4058 112.798 38.2252 111.833C38.0447 110.867 38.1546 109.87 38.541 108.967C38.9274 108.064 39.5729 107.296 40.396 106.76C41.219 106.224 42.1825 105.945 43.1646 105.956C43.8161 105.963 44.4599 106.098 45.0592 106.354C45.6584 106.61 46.2013 106.981 46.6568 107.447C47.1123 107.913 47.4715 108.464 47.7137 109.069C47.956 109.674 48.0766 110.321 48.0687 110.972Z" fill="white"/>
<path d="M51.5227 124.705V126.758C48.9228 128.322 45.938 129.131 42.9037 129.093C39.8693 129.056 36.9057 128.172 34.3457 126.543V124.507C34.3719 122.23 35.3019 120.055 36.9311 118.463C38.5602 116.871 40.7552 115.991 43.033 116.018C45.3108 116.044 47.4849 116.974 49.077 118.603C50.6692 120.232 51.5489 122.427 51.5227 124.705Z" fill="white"/>
<path d="M124.378 129.102H15.6133V54.6914H124.378V129.102ZM16.4721 128.243H123.519V55.5503H16.4721V128.243Z" fill="#EBEBEB"/>
<path d="M24.1157 59.4836C24.1157 59.9117 23.9888 60.3301 23.751 60.6861C23.5131 61.042 23.1751 61.3194 22.7797 61.4832C22.3842 61.647 21.949 61.6899 21.5292 61.6064C21.1093 61.5229 20.7237 61.3167 20.421 61.014C20.1183 60.7113 19.9122 60.3257 19.8287 59.9059C19.7452 59.486 19.788 59.0509 19.9519 58.6554C20.1157 58.2599 20.3931 57.9219 20.749 57.6841C21.1049 57.4463 21.5234 57.3193 21.9514 57.3193C22.5254 57.3193 23.0759 57.5474 23.4818 57.9532C23.8877 58.3591 24.1157 58.9096 24.1157 59.4836Z" fill="#A6A6A6"/>
<path d="M32.9536 59.4836C32.9536 59.9117 32.8267 60.3301 32.5889 60.6861C32.351 61.042 32.013 61.3194 31.6175 61.4832C31.2221 61.647 30.7869 61.6899 30.3671 61.6064C29.9472 61.5229 29.5616 61.3167 29.2589 61.014C28.9562 60.7113 28.7501 60.3257 28.6666 59.9059C28.5831 59.486 28.6259 59.0509 28.7897 58.6554C28.9536 58.2599 29.231 57.9219 29.5869 57.6841C29.9428 57.4463 30.3612 57.3193 30.7893 57.3193C31.3633 57.3193 31.9138 57.5474 32.3197 57.9532C32.7256 58.3591 32.9536 58.9096 32.9536 59.4836Z" fill="#EBEBEB"/>
<path d="M41.7915 59.4836C41.7915 59.9117 41.6646 60.3301 41.4267 60.6861C41.1889 61.042 40.8509 61.3194 40.4554 61.4832C40.06 61.647 39.6248 61.6899 39.205 61.6064C38.7851 61.5229 38.3995 61.3167 38.0968 61.014C37.7941 60.7113 37.588 60.3257 37.5045 59.9059C37.421 59.486 37.4638 59.0509 37.6276 58.6554C37.7915 58.2599 38.0689 57.9219 38.4248 57.6841C38.7807 57.4463 39.1991 57.3193 39.6272 57.3193C40.2012 57.3193 40.7517 57.5474 41.1576 57.9532C41.5635 58.3591 41.7915 58.9096 41.7915 59.4836Z" fill="#5B2E4F"/>
<path d="M123.949 63.2969H16.043V64.1557H123.949V63.2969Z" fill="#EBEBEB"/>
<path d="M167.871 389.815C235.791 389.815 290.85 385.551 290.85 380.29C290.85 375.03 235.791 370.766 167.871 370.766C99.9521 370.766 44.8926 375.03 44.8926 380.29C44.8926 385.551 99.9521 389.815 167.871 389.815Z" fill="#EBEBEB"/>
<path d="M209.499 0H208.641V118.143H209.499V0Z" fill="#C7C7C7"/>
<path d="M174.012 151.939L176.837 158.14H241.32L244.128 151.939L216.679 132.933H201.469L174.012 151.939Z" fill="#5B2E4F"/>
<path d="M199.562 114.631L201.469 132.933H216.679L218.586 114.631H199.562Z" fill="#5B2E4F"/>
<path opacity="0.1" d="M174.02 151.939L176.837 158.14H241.328L244.136 151.939H174.02Z" fill="black"/>
<path opacity="0.1" d="M201.47 132.933L201.264 130.966L216.998 129.833L216.68 132.933H201.47Z" fill="black"/>
<path d="M150.986 0H150.127V80.9638H150.986V0Z" fill="#C7C7C7"/>
<path d="M115.498 114.759L118.324 120.96H182.806L185.615 114.759L158.166 95.7617H142.955L115.498 114.759Z" fill="#5B2E4F"/>
<path d="M141.049 77.4512L142.955 95.7619H158.166L160.072 77.4512H141.049Z" fill="#5B2E4F"/>
<path opacity="0.1" d="M115.506 114.768L118.323 120.96H182.805L185.622 114.768H115.506Z" fill="black"/>
<path opacity="0.1" d="M142.956 95.762L142.732 93.6407L158.492 92.6187L158.166 95.762H142.956Z" fill="black"/>
<path d="M297.738 269.421C297.995 265.084 298.609 260.775 299.576 256.539C300.486 252.717 301.774 248.809 304.188 245.64C305.249 244.15 306.594 242.886 308.147 241.919C309.699 240.952 311.427 240.302 313.231 240.006C316.778 239.576 320.102 241.156 322.756 243.381C326.037 246.146 328.553 249.814 330.915 253.361C333.501 257.331 335.853 261.449 337.958 265.694C338.035 265.831 337.82 265.952 337.752 265.814C335.922 262.219 333.815 258.774 331.448 255.508C329.289 252.373 326.861 249.433 324.19 246.722C321.76 244.351 318.668 242.127 315.138 242.015C311.608 241.904 308.396 243.87 306.292 246.576C303.93 249.599 302.728 253.369 301.826 257.045C300.914 261.075 300.322 265.17 300.057 269.292C299.361 277.804 299.198 286.366 298.983 294.895C298.871 299.721 298.811 304.557 298.76 309.384L298.708 316.727C298.794 319.089 298.7 321.455 298.425 323.804C298.339 324.276 297.566 324.233 297.48 323.804C297.194 321.58 297.088 319.337 297.162 317.096C297.128 314.777 297.099 312.458 297.076 310.139C297.031 305.633 297.013 301.124 297.025 296.612C297.008 287.534 297.119 278.456 297.738 269.421Z" fill="#263238"/>
<path d="M309.899 263.006C310.346 260.601 311.161 257.466 312.527 255.602C314.992 252.253 317.68 253.704 315.198 257.415C313.386 260.17 312.212 263.295 311.763 266.561C311.763 266.561 315.902 272.479 320.901 275.39C320.686 273.114 320.042 269.619 320.489 266.244C321.45 258.935 325.874 259.373 324.783 265.153C323.924 269.808 323.546 274.755 323.787 276.893C325.457 277.976 327.25 278.856 329.129 279.513C328.837 278.654 328.536 277.649 328.201 276.412C326.423 269.859 330.778 267.824 330.932 271.508C331.222 274.652 331.797 277.762 332.65 280.801C335.046 281.608 337.039 282.158 338.25 282.579C341.398 283.746 344.212 285.669 346.443 288.179C348.719 286.122 350.609 283.676 352.026 280.956C350.497 279.642 348.083 277.692 344.734 275.322C338.456 270.89 340.637 265.29 345.593 268.769C349.183 271.285 351.965 275.94 353.237 278.328C354.931 274.164 355.892 269.739 356.079 265.247C351.15 260.618 338.945 254.16 342.621 254.16C345.936 254.16 353.34 259.012 356.054 260.884C355.989 259.612 355.851 258.345 355.641 257.088C350.995 254.039 335.888 249.307 338.301 247.941C340.938 246.447 351.476 251.325 354.662 252.863C354.063 250.793 353.12 248.839 351.871 247.083C345.447 238.494 333.835 235.531 328.819 237.163C325.247 238.322 326.243 247.392 325.521 247.083C311.144 241.337 304.617 245.391 309.899 263.006ZM345.112 262.009C346.134 260.781 350.84 264.406 349.483 266.381C348.126 268.356 343.781 263.59 345.095 262.009H345.112ZM320.489 254.28C321.725 255.07 319.896 259.648 317.981 258.265C316.375 257.08 319.226 253.481 320.471 254.28H320.489Z" fill="#5B2E4F"/>
<path d="M322.387 255.68C323.031 254.4 323.709 253.103 324.448 251.892C325.127 250.675 325.921 249.524 326.818 248.457C326.621 248.208 326.423 247.95 326.208 247.701C326.123 247.598 326.269 247.461 326.354 247.555C326.595 247.83 326.827 248.113 327.059 248.414C327.083 248.426 327.105 248.443 327.122 248.464C327.14 248.484 327.153 248.508 327.162 248.534C328.049 249.599 328.888 250.69 329.678 251.806C331.091 252.132 332.485 252.536 333.852 253.017C335.261 253.49 336.661 253.979 338.026 254.555C338.172 254.615 338.095 254.855 337.958 254.787C336.601 254.194 335.226 253.61 333.818 253.138C332.409 252.665 331.138 252.339 329.79 251.961C330.228 252.579 330.649 253.198 331.07 253.833C333.605 254.636 336.073 255.641 338.447 256.839C340.938 258.024 343.334 259.416 345.722 260.781C345.859 260.859 345.722 261.073 345.593 260.988C343.245 259.616 340.829 258.366 338.353 257.243C336.042 256.161 333.655 255.276 331.327 254.246C337.193 263.392 340.706 273.956 345.412 283.73C345.481 283.876 345.258 283.988 345.198 283.85C343.763 280.415 342.106 277.082 340.543 273.707C339.143 270.675 337.769 267.635 336.369 264.603C335.956 263.744 335.51 262.834 335.098 261.958C335.355 266.845 335.252 271.818 336.059 276.644C336.059 276.66 336.056 276.676 336.05 276.69C336.044 276.705 336.035 276.718 336.024 276.729C336.013 276.741 336 276.749 335.985 276.755C335.971 276.761 335.955 276.765 335.939 276.765C335.923 276.765 335.908 276.761 335.893 276.755C335.879 276.749 335.865 276.741 335.854 276.729C335.843 276.718 335.834 276.705 335.828 276.69C335.822 276.676 335.819 276.66 335.819 276.644C335.475 271.423 334.556 266.278 334.591 261.03C334.591 261.03 334.591 260.988 334.591 260.962C333.595 258.961 332.53 256.994 331.387 255.079C329.446 259.648 327.402 264.294 326.5 269.207C326.5 269.353 326.226 269.293 326.26 269.138C327.583 264.217 328.837 259.287 331.181 254.735C329.937 252.662 328.557 250.674 327.05 248.783C326.397 249.994 325.564 251.145 324.826 252.305C324.087 253.464 323.391 254.58 322.722 255.74C321.277 258.205 320.05 260.791 319.054 263.47C318.994 263.616 318.762 263.538 318.822 263.401C319.939 260.833 321.073 258.213 322.387 255.68Z" fill="#263238"/>
<path d="M276.129 266.811C279.891 263.032 284.262 258.085 290.077 258.093C295.694 258.093 299.825 262.619 302.195 267.283C304.677 272.161 305.57 277.684 306.275 283.051C307.105 289.483 307.609 295.953 307.786 302.436C307.889 306.034 307.872 309.641 307.786 313.24C307.775 316.889 307.488 320.533 306.927 324.139C306.824 324.714 305.888 324.74 305.854 324.139C305.682 321.107 305.802 318.058 305.854 315.026C305.905 311.995 305.854 309.015 305.716 306.069C305.493 300.057 305.055 294.045 304.342 288.033C303.724 282.785 303.234 277.4 301.663 272.333C300.254 267.764 297.6 262.542 292.971 260.532C286.65 257.801 280.475 262.8 276.344 267.025C276.206 267.103 276.009 266.922 276.129 266.811Z" fill="#263238"/>
<path d="M256.934 275.244C256.934 276.017 257.003 276.773 257.055 277.52C258.864 276.163 260.984 275.278 263.221 274.944C268.563 274.377 268.22 278.431 264.655 278.602C262.143 278.634 259.659 279.132 257.329 280.071C258.188 287.122 260.138 292.791 260.43 292.868C265.167 292.622 269.882 292.048 274.541 291.15C273.21 288.316 270.186 284.554 271.732 284.279C273.278 284.005 274.953 287.32 275.812 290.918C279.316 290.249 282.762 289.304 286.118 288.093C283.765 286.057 280.106 283.524 281.523 282.45C282.94 281.376 285.817 284.932 287.535 287.526C289.109 286.883 290.6 286.053 291.975 285.052C288.806 280.397 281.094 279.453 282.099 276.095C283.103 272.736 290.326 277.391 293.564 283.618C297.369 279.667 298.485 274.085 298.082 269.31C294.767 268.923 288.394 269.627 288.858 267.248C289.322 264.869 293.925 265.316 297.695 266.707C297.35 264.817 296.593 263.026 295.48 261.46C291.993 256.977 281.326 262.679 281.326 262.679C281.326 262.679 282.468 251.961 278.406 250.114C276.061 249.049 271.921 249.058 267.773 251.497C270.1 251.695 272.926 252.433 274.043 254.074C275.494 256.126 273.184 257.251 271.758 256.298C270.736 255.628 268.829 253.507 265.385 253.223C263.915 254.474 262.62 255.919 261.538 257.518C261.143 258.076 260.782 258.66 260.413 259.295C262.381 258.407 264.522 257.966 266.682 258.004C268.841 258.043 270.965 258.56 272.9 259.519C277.521 261.812 274.936 266.613 270.959 264.749C266.983 262.885 263.23 261.048 258.978 262.104C257.484 265.878 256.774 269.916 256.891 273.973C258.961 272.465 261.29 271.35 263.762 270.684C268.357 269.481 269.774 272.221 264.698 272.736C261.966 273.032 259.323 273.885 256.934 275.244ZM262.525 267.867C262.208 266.372 265.463 265.952 266.004 267.154C266.459 268.185 262.835 269.353 262.525 267.867ZM290.404 276.112C290.713 275.296 292.894 276.223 292.697 277.237C292.422 278.585 290.103 276.919 290.404 276.112ZM275.013 281.334C276.602 280.698 279.084 284.649 277.349 285.551C275.614 286.452 273.708 281.857 275.013 281.334Z" fill="#5B2E4F"/>
<path d="M261.048 292.086C263.444 288.084 265.815 284.065 268.331 280.131C269.499 278.302 270.727 276.507 271.998 274.746L271.431 274.609L270.478 274.428C269.74 274.3 269.001 274.197 268.254 274.119C267.507 274.042 266.854 274.008 266.15 273.999C265.4 273.957 264.649 273.998 263.908 274.119C263.892 274.119 263.877 274.113 263.865 274.102C263.854 274.09 263.848 274.075 263.848 274.059C263.848 274.043 263.854 274.028 263.865 274.017C263.877 274.005 263.892 273.999 263.908 273.999C264.655 273.999 265.42 273.93 266.167 273.922C266.914 273.913 267.627 273.922 268.348 273.973C269.03 274.01 269.709 274.082 270.384 274.188C270.762 274.239 271.131 274.308 271.5 274.377C271.729 274.413 271.955 274.462 272.179 274.523C273.476 272.736 274.824 270.993 276.215 269.275C272.074 267.264 267.666 265.856 263.126 265.093C263.049 265.093 263.083 264.964 263.126 264.972C267.742 265.613 272.229 266.975 276.421 269.009L278.732 266.201C279.591 265.161 280.527 264.139 281.308 263.04C281.36 262.963 281.463 263.04 281.411 263.109C280.331 264.292 279.316 265.533 278.371 266.828C280.085 268.017 281.715 269.322 283.249 270.735C284.841 272.15 286.393 273.61 287.904 275.115C287.964 275.167 287.904 275.253 287.818 275.201C286.324 273.716 284.778 272.298 283.163 270.95C281.549 269.602 279.84 268.374 278.216 267.042C277.847 267.54 277.478 268.03 277.1 268.511C276.911 268.751 276.731 269 276.542 269.25L276.499 269.301C275.872 270.108 275.253 270.924 274.635 271.74C275.361 272.79 275.983 273.909 276.49 275.081C277.023 276.206 277.495 277.374 277.924 278.517C278.782 280.963 279.448 283.473 279.917 286.023C279.917 286.092 279.822 286.126 279.805 286.023C279.294 283.51 278.564 281.048 277.624 278.663C277.16 277.443 276.628 276.249 276.086 275.055C275.545 273.862 274.979 272.934 274.515 271.835C273.982 272.548 273.441 273.269 272.917 273.99C272.763 274.197 272.617 274.411 272.471 274.626C272.471 274.669 272.471 274.729 272.419 274.738C270.77 277.031 269.207 279.384 267.687 281.763C267.777 281.925 267.846 282.099 267.893 282.278C267.987 282.57 268.082 282.862 268.168 283.137C268.338 283.725 268.479 284.321 268.589 284.924C268.683 285.482 268.769 286.057 268.821 286.641C268.835 287.29 268.883 287.938 268.967 288.582C268.967 288.677 268.829 288.685 268.846 288.582C268.889 287.978 268.846 287.371 268.718 286.779C268.632 286.16 268.511 285.542 268.374 284.932C268.237 284.322 268.091 283.833 267.927 283.292C267.85 283.026 267.764 282.751 267.67 282.484C267.575 282.218 267.549 282.192 267.498 282.046C266.785 283.163 266.081 284.279 265.385 285.413C264.011 287.655 262.645 289.896 261.263 292.138C261.256 292.166 261.238 292.191 261.213 292.206C261.188 292.222 261.158 292.226 261.13 292.219C261.101 292.213 261.077 292.195 261.061 292.17C261.046 292.145 261.041 292.115 261.048 292.086Z" fill="#263238"/>
<path d="M297.988 322.842C298.048 320.574 298.409 318.281 298.658 316.031C298.907 313.781 299.156 311.496 299.397 309.229C299.869 304.857 300.127 300.391 301.115 296.106C301.875 292.378 303.732 288.962 306.448 286.298C307.857 284.889 309.706 284.007 311.687 283.798C313.678 283.743 315.631 284.347 317.244 285.516C319.078 286.873 320.659 288.542 321.916 290.446C323.274 292.328 324.494 294.305 325.566 296.363C325.566 296.441 325.48 296.492 325.437 296.415C323.416 292.979 320.737 289.976 317.553 287.577C316.135 286.413 314.405 285.693 312.58 285.507C311.689 285.492 310.805 285.654 309.977 285.984C309.15 286.314 308.397 286.806 307.762 287.431C305.117 289.733 303.579 293.117 302.669 296.441C301.587 300.374 301.243 304.522 300.702 308.559C300.376 310.955 300.075 313.36 299.758 315.765C299.44 318.17 299.242 320.6 298.735 322.953C298.699 323.03 298.639 323.092 298.564 323.132C298.49 323.172 298.404 323.186 298.321 323.174C298.237 323.161 298.16 323.122 298.1 323.063C298.04 323.003 298.001 322.925 297.988 322.842Z" fill="#263238"/>
<path d="M309.152 305.218C309.852 306.168 310.682 307.015 311.617 307.734C311.248 305.527 310.759 301.585 311.909 299.498C313.627 296.243 315.705 297.866 314.666 300.692C313.631 303.243 313.066 305.961 313 308.714C315.362 310.191 317.89 311.385 320.532 312.269C320.253 310.995 320.169 309.686 320.283 308.387C320.635 304.909 323.298 304.952 322.602 308.593C322.344 309.992 322.223 311.413 322.241 312.836C326.084 314.021 330.012 314.908 333.99 315.49C336.021 312.854 337.658 309.938 338.852 306.833C336.017 306.128 330.263 305.974 330.409 303.938C330.572 301.216 336.12 303.311 339.375 305.287C340.116 302.918 340.448 300.441 340.355 297.961C337.806 297.252 335.189 296.82 332.548 296.672C326.716 296.166 326.999 292.859 331.225 292.936C334.343 292.997 338.285 294.903 340.157 295.899C338.937 287.964 332.891 282.888 328.039 282.69C319.888 282.364 322.825 292.507 322.825 292.507C322.825 292.507 317.294 288.625 312.081 288.728C306.868 288.831 303.579 297.463 309.152 305.218ZM330.924 290.549C330.744 289.407 334.36 289.132 334.574 290.6C334.789 292.241 331.105 291.708 330.924 290.549ZM336.782 302.452C336.704 301.705 338.276 301.594 338.628 302.513C338.869 303.174 336.842 303.174 336.782 302.452ZM317.234 303.174C318.462 303.346 319.167 307.743 317.045 307.657C315.405 307.563 316.161 303.002 317.234 303.174Z" fill="#5B2E4F"/>
<path d="M318.9 308.027C319.106 307.477 319.287 306.927 319.458 306.369C319.304 306.927 319.158 307.494 319.055 308.087C319.051 308.097 319.045 308.106 319.037 308.114C319.03 308.122 319.021 308.128 319.011 308.133C319.001 308.137 318.99 308.139 318.979 308.14C318.968 308.14 318.958 308.138 318.947 308.134C318.937 308.13 318.928 308.124 318.92 308.117C318.912 308.109 318.906 308.1 318.902 308.09C318.897 308.08 318.895 308.069 318.895 308.059C318.894 308.048 318.896 308.037 318.9 308.027Z" fill="#263238"/>
<path d="M321.055 300.967C321.433 299.842 321.863 298.726 322.301 297.618C322.533 297.034 322.782 296.441 323.039 295.9C323.22 295.383 323.463 294.89 323.761 294.431C323.511 293.97 323.29 293.494 323.099 293.006C323.099 292.963 323.142 292.92 323.177 292.963C323.78 293.734 324.312 294.559 324.766 295.428C324.997 295.805 325.212 296.2 325.427 296.587C325.889 296.628 326.348 296.7 326.801 296.802C327.291 296.888 327.78 296.991 328.261 297.102C328.742 297.214 329.232 297.317 329.713 297.437C330.194 297.557 330.674 297.712 331.164 297.781C331.276 297.781 331.224 297.978 331.121 297.935C330.624 297.761 330.112 297.628 329.592 297.54C329.129 297.437 328.656 297.351 328.184 297.291C327.711 297.231 327.239 297.162 326.758 297.111L325.685 297.025C325.873 297.369 326.08 297.703 326.269 298.047C326.294 298.106 326.322 298.163 326.354 298.219C326.748 298.214 327.141 298.26 327.522 298.356C327.943 298.434 328.381 298.511 328.785 298.605C329.644 298.794 330.503 298.992 331.319 299.224C333.088 299.722 334.823 300.28 336.566 300.847C336.661 300.847 336.566 301.027 336.506 300.993C334.775 300.415 333.015 299.928 331.233 299.533C330.374 299.344 329.567 299.155 328.733 298.983L327.471 298.717C327.143 298.664 326.819 298.589 326.5 298.494C327.359 300.151 328.218 301.843 329.017 303.561C330.735 307.297 332.135 311.153 333.586 314.992C333.586 315.087 333.474 315.147 333.44 315.052C332.039 311.239 330.416 307.511 328.579 303.887C328.252 303.226 327.918 302.573 327.591 301.903C327.591 302.041 327.531 302.178 327.505 302.316C327.419 302.762 327.342 303.217 327.265 303.672C327.11 304.583 326.956 305.493 326.818 306.404C326.43 308.27 326.212 310.167 326.165 312.072C326.165 312.192 325.985 312.184 326.002 312.072C326.148 311.17 326.148 310.226 326.208 309.315C326.269 308.405 326.337 307.4 326.449 306.455C326.561 305.51 326.672 304.626 326.827 303.715C326.904 303.26 326.981 302.805 327.067 302.35C327.088 302.008 327.173 301.673 327.316 301.362C326.844 300.409 326.372 299.447 325.882 298.494C325.393 297.54 324.972 296.699 324.508 295.814C324.31 295.436 324.096 295.058 323.89 294.672C323.74 295.141 323.559 295.6 323.348 296.046L322.722 297.592C322.249 298.726 321.82 299.876 321.382 301.027C320.763 302.659 320.085 304.325 319.578 306.026C320.076 304.308 320.497 302.608 321.055 300.967Z" fill="#263238"/>
<path d="M319.459 306.369C319.459 306.232 319.536 306.103 319.579 305.974C319.536 306.103 319.502 306.232 319.459 306.369Z" fill="#263238"/>
<path d="M284.357 318.427L284.933 330.563L286.401 361.842H318.677L320.154 330.563L320.721 318.427H284.357Z" fill="#37474F"/>
<path d="M284.357 318.427L284.933 330.563H320.154L320.721 318.427H284.357Z" fill="#263238"/>
<path d="M282.055 323.332H323.014V313.515H282.055V323.332Z" fill="#37474F"/>
<path d="M316.067 361.842H310.398V366.978H316.067V361.842Z" fill="#37474F"/>
<path d="M316.067 361.842H310.398V364.41H316.067V361.842Z" fill="#263238"/>
<path d="M294.681 361.842H289.021V366.978H294.681V361.842Z" fill="#37474F"/>
<path d="M294.681 361.842H289.021V364.41H294.681V361.842Z" fill="#263238"/>
<path d="M0 367.107L44.9522 366.901L89.9045 366.824L179.818 366.678L269.731 366.824L314.683 366.901L359.635 367.107L314.683 367.322L269.731 367.391L179.818 367.537L89.9045 367.391L44.9522 367.322L0 367.107Z" fill="#263238"/>
<path d="M36.7506 366.97L179.818 367.588C214.593 340.285 218.183 299.825 193.371 275.305C178.366 260.464 159.3 263.453 141.17 261.091H141.118C134.797 260.232 128.596 258.798 122.704 255.689C104.007 245.829 93.5034 222.563 77.7435 202.99C75.7853 200.542 73.7327 198.154 71.5855 195.853C58.6513 182.042 32.9373 181.596 19.4447 201.006C-14.789 250.329 0.876387 323.787 36.7506 366.97Z" fill="#5B2E4F"/>
<path opacity="0.1" d="M33.5736 254.091C37.3182 312.793 105.116 334.702 147.449 317.122C184.267 301.826 172.218 266.931 141.17 261.09H141.119C134.798 260.232 128.597 258.797 122.705 255.688C104.008 245.829 93.5041 222.562 77.7442 202.989C54.289 190.811 30.8252 211.114 33.5736 254.091Z" fill="black"/>
<path d="M168.266 376.176C166.058 375.369 116.194 335.518 115.257 332.796C114.897 331.765 120.273 324.207 127.032 315.164C128.492 313.223 130.012 311.222 131.567 309.203C141.641 296.071 152.643 282.381 152.643 282.381L186.078 308.937L164.083 335.037L159.256 340.766C159.256 340.766 171.521 364.565 172.234 367.657C172.946 370.748 170.473 377.035 168.266 376.176Z" fill="#D3766A"/>
<path d="M168.266 376.177C166.059 375.318 116.203 335.519 115.258 332.796C114.958 331.937 118.462 326.784 123.426 320.025C130.675 328.691 155.951 354.491 162.856 357.943C167.236 360.133 166.368 355.83 164.728 351.553C168.095 358.278 171.848 365.982 172.234 367.648C172.947 370.783 170.474 377.035 168.266 376.177Z" fill="#263238"/>
<path d="M219.84 257.904C217.556 275.27 174.751 325.41 169.804 331.164L168.653 332.47L133.268 305.261L133.672 304.738L164.857 263.908C164.857 263.908 113.326 293.968 87.5002 280.338C75.8971 274.205 67.3086 263.307 67.3086 263.307L100.976 245.357C100.976 245.357 110.294 248.371 116.246 247.504C136.772 244.498 182.764 227.037 193.68 227.475C207.774 228.051 221.945 241.964 219.84 257.904Z" fill="#37474F"/>
<path d="M176.056 248.732C174.897 250.037 173.821 251.414 172.836 252.854C171.736 254.306 170.611 255.731 169.512 257.148V257.191C169.709 256.762 169.898 256.333 170.104 255.92C170.8 254.477 171.358 252.992 172.174 251.626C172.179 251.609 172.179 251.592 172.173 251.575C172.167 251.559 172.155 251.546 172.14 251.537C172.125 251.528 172.108 251.524 172.091 251.526C172.074 251.528 172.058 251.536 172.045 251.549C171.187 252.914 170.225 254.211 169.469 255.645C169.125 256.324 168.808 257.011 168.507 257.707C168.344 258.085 168.172 258.471 168.026 258.858C167.946 259.039 167.877 259.226 167.82 259.416C167.33 260.086 166.841 260.756 166.368 261.443C165.321 262.963 164.393 264.569 163.328 266.08C163.268 266.158 163.397 266.235 163.457 266.158C164.53 264.741 165.741 263.418 166.832 262.01C167.923 260.601 169.005 259.107 170.044 257.621C171.084 256.135 172.054 254.709 173.076 253.258C174.187 251.83 175.211 250.335 176.142 248.783C176.168 248.749 176.099 248.689 176.056 248.732Z" fill="#263238"/>
<path d="M61.7177 198.644C61.2453 209.001 58.9436 221.36 63.3324 231.168C66.7678 238.846 74.025 244.051 81.5142 247.349C98.0041 254.641 121.081 255.594 132.633 239.224C137.245 232.688 138.035 219.067 130.383 214.086C126.458 211.509 121.794 210.942 117.345 209.74C114.576 209.095 111.987 207.833 109.773 206.049C107.559 204.264 105.776 202.003 104.557 199.434C99.2581 188.81 100.314 181.037 99.3096 169.546C99.2872 168.404 99.0265 167.279 98.5444 166.244C98.0623 165.209 97.3693 164.286 96.5097 163.534C94.6222 161.676 92.265 160.367 89.6905 159.746C87.4946 158.789 85.0949 158.393 82.708 158.595C77.6236 159.128 72.7368 163.817 68.7946 166.737C64.8525 169.657 62.9802 172.749 62.671 177.791C62.2502 184.722 62.0355 191.687 61.7177 198.644Z" fill="#263238"/>
<path d="M60.4368 203.548C61.4846 194.1 62.7042 184.653 63.8722 175.206C63.8722 175.154 63.9667 175.154 63.9581 175.206C63.2281 183.004 62.6011 190.811 61.768 198.601C60.9092 206.244 59.5865 214.06 59.4405 221.73C59.1142 238.984 76.858 246.001 91.5272 245.159C92.1971 245.159 92.1799 246.19 91.5272 246.207C78.6444 246.542 63.2281 242.136 59.3289 228.111C57.1646 220.416 59.578 211.277 60.4368 203.548Z" fill="#263238"/>
<path d="M98.4768 168.635C98.4768 168.455 98.7516 168.464 98.7602 168.635C99.1896 178.083 98.7602 189.248 104.205 197.484C106.867 201.555 110.7 204.723 115.199 206.571C118.763 208.022 122.542 208.151 126.261 208.881C140.861 211.741 140.973 231.409 130.383 239.078C130.16 239.242 129.876 238.864 130.091 238.692C137.546 232.757 140.002 221.962 133.93 214.043C129.052 207.687 119.69 209.749 113.043 206.313C99.2669 199.168 98.2277 182.411 98.4768 168.635Z" fill="#263238"/>
<path d="M83.567 209.843C89.871 218.896 111.402 243.768 126.346 247.169C134.583 249.05 174.365 254.615 179.818 249.651C186.208 243.837 183.254 221.936 178.169 221.738C162.667 221.129 133.99 224.16 126.827 222.597C123.589 221.876 106.412 210.797 88.0674 201.933C81.1279 198.567 79.496 204.003 83.567 209.843Z" fill="#D3766A"/>
<path d="M98.9563 231.538L104.968 209.388C104.968 209.388 94.8768 203.788 88.8562 201.478C80.8861 198.42 77.8801 200.619 82.767 209.912C86.0478 216.104 98.9563 231.538 98.9563 231.538Z" fill="#EBEBEB"/>
<path d="M97.4703 228.72C98.123 225.44 98.8187 222.167 99.6604 218.93C100.081 217.315 100.519 215.7 101 214.103C101.481 212.505 102.108 210.942 102.546 209.336C102.546 209.25 102.718 209.293 102.684 209.336C102.16 210.916 101.825 212.583 101.395 214.189C100.966 215.795 100.536 217.409 100.09 219.024C99.231 222.253 98.3721 225.483 97.5992 228.72C97.582 228.858 97.4531 228.815 97.4703 228.72Z" fill="#263238"/>
<path d="M104.034 212.875L98.9578 231.546C98.9578 231.546 86.0751 216.087 82.7771 209.911C81.2741 207.052 80.5097 204.861 80.4238 203.298L104.034 212.875Z" fill="#263238"/>
<path d="M51.1621 271.148C53.1461 271.792 109.427 255.5 109.427 255.5L102.779 235.961C102.779 235.961 106.068 229.674 104.497 223.628C102.461 215.555 87.5087 202.277 86.3406 201.495C81.6685 198.395 77.2454 198.395 73.3205 200.499C57.0624 209.148 51.1621 271.148 51.1621 271.148Z" fill="#EBEBEB"/>
<path d="M94.1052 208.529C95.5566 210.247 97.1112 211.827 98.6056 213.476C97.9099 212.248 97.2142 211.011 96.4756 209.8C96.4756 209.8 96.4756 209.749 96.4756 209.8C97.5703 211.219 98.5252 212.741 99.327 214.344C100.451 215.593 101.487 216.919 102.427 218.311C103.593 219.965 104.465 221.807 105.004 223.757C105.47 225.728 105.529 227.774 105.176 229.769C104.746 232.065 104.111 234.319 103.278 236.502C103.175 236.794 102.762 236.605 102.84 236.322C103.896 232.508 105.098 228.48 104.248 224.495C103.398 220.51 100.942 217.229 98.5454 214.094C97.1356 212.18 95.6067 210.355 93.9678 208.632C93.9334 208.555 94.0365 208.46 94.1052 208.529Z" fill="#263238"/>
<path d="M84.7262 234.552C87.1466 234.086 89.5981 233.798 92.0608 233.693C93.2803 233.693 94.4999 233.693 95.7195 233.753C96.3293 233.753 96.939 233.753 97.5488 233.753C98.1861 233.773 98.8235 233.716 99.4469 233.582C99.4984 233.582 99.5242 233.65 99.4469 233.667C98.8847 233.856 98.3109 234.008 97.7292 234.123C97.1606 234.212 96.5868 234.263 96.0115 234.277C94.7661 234.277 93.5294 234.277 92.2841 234.329C89.7848 234.38 87.277 234.432 84.7863 234.672C84.6317 234.767 84.6145 234.569 84.7262 234.552Z" fill="#263238"/>
<path d="M79.4778 238.28C81.3645 237.532 83.2913 236.89 85.2493 236.356C86.237 236.09 87.2246 235.892 88.2209 235.712L89.6638 235.48C90.1877 235.403 90.7288 235.394 91.2527 235.308C91.3128 235.308 91.3385 235.385 91.2527 235.394C90.7545 235.488 90.2736 235.669 89.7926 235.789L88.3154 236.158C87.3363 236.407 86.3572 236.674 85.3695 236.914C83.4028 237.395 81.4446 237.893 79.495 238.443C79.477 238.439 79.4606 238.43 79.4482 238.417C79.4359 238.403 79.4282 238.386 79.4263 238.368C79.4243 238.349 79.4283 238.331 79.4376 238.315C79.4469 238.299 79.461 238.287 79.4778 238.28Z" fill="#263238"/>
<path d="M76.8507 201.598C77.074 202.62 81.8407 209.328 86.4956 209.139C88.0072 209.087 88.0931 200.808 88.0931 200.808L88.2391 200.198L90.2832 191.652L78.8605 184.172C78.8605 184.172 76.7563 201.16 76.8507 201.598Z" fill="#D3766A"/>
<path d="M90.2832 191.644L88.2391 200.232C85.9379 199.33 83.8515 197.955 82.1147 196.196C80.3779 194.437 79.0294 192.333 78.1562 190.021C78.5084 187.075 78.809 184.627 78.8519 184.266C78.8538 184.249 78.8538 184.232 78.8519 184.215L80.3034 185.074L90.2832 191.644Z" fill="#263238"/>
<path d="M101.353 175.91C105.158 190.854 96.6382 194.805 93.4175 195.664C90.4888 196.402 80.4403 198.558 75.1154 184.095C69.7906 169.632 75.5363 163.139 82.1322 161.086C88.7282 159.034 97.5572 160.975 101.353 175.91Z" fill="#D3766A"/>
<path d="M98.4853 174.055C98.1246 174.055 97.781 174.055 97.4203 174.055C97.0429 174.097 96.6624 174.012 96.3382 173.814C96.2492 173.732 96.19 173.622 96.1698 173.503C96.1496 173.383 96.1695 173.26 96.2265 173.153C96.3668 172.957 96.5573 172.803 96.7779 172.706C96.9986 172.609 97.2413 172.574 97.4804 172.603C97.9784 172.586 98.4651 172.754 98.846 173.076C98.9199 173.155 98.9704 173.253 98.9918 173.359C99.0132 173.465 99.0048 173.575 98.9673 173.676C98.9299 173.778 98.8651 173.867 98.7799 173.934C98.6948 174.001 98.5928 174.043 98.4853 174.055Z" fill="#263238"/>
<path d="M88.4361 177.198C88.7882 177.087 89.0888 176.932 89.4237 176.795C89.7887 176.697 90.1135 176.487 90.3513 176.193C90.4058 176.085 90.4236 175.962 90.4019 175.843C90.3802 175.723 90.3202 175.614 90.2311 175.532C90.0297 175.398 89.7961 175.32 89.5545 175.306C89.3129 175.293 89.072 175.344 88.8569 175.455C88.386 175.612 87.9909 175.94 87.749 176.374C87.6972 176.476 87.6764 176.59 87.6892 176.704C87.702 176.817 87.7478 176.925 87.8209 177.012C87.894 177.1 87.9913 177.165 88.1006 177.198C88.21 177.231 88.3266 177.231 88.4361 177.198Z" fill="#263238"/>
<path d="M90.9965 179.079C90.9965 179.079 90.9278 179.139 90.9364 179.182C91.1855 180.204 91.2885 181.415 90.4297 181.948C90.4297 181.948 90.4297 182.016 90.4297 181.999C91.5548 181.613 91.3572 180.007 90.9965 179.079Z" fill="#263238"/>
<path d="M89.8627 178.195C88.145 178.409 88.729 181.75 90.2921 181.553C91.8552 181.355 91.2712 178.014 89.8627 178.195Z" fill="#263238"/>
<path d="M89.2355 178.478C88.9693 178.71 88.7374 179.096 88.3766 179.191C88.0159 179.285 87.6123 178.993 87.2859 178.701C87.2859 178.701 87.2344 178.701 87.2344 178.753C87.3374 179.397 87.6896 180.007 88.3938 179.989C89.0981 179.972 89.3901 179.337 89.4416 178.667C89.4674 178.538 89.3386 178.383 89.2355 178.478Z" fill="#263238"/>
<path d="M96.9386 177.782C96.9386 177.782 97.0244 177.825 97.033 177.868C97.1619 178.907 97.4882 180.075 98.4759 180.273V180.333C97.3079 180.307 96.8956 178.753 96.9386 177.782Z" fill="#263238"/>
<path d="M97.6944 176.511C99.3434 176.125 99.9961 179.448 98.4673 179.809C96.9386 180.17 96.3116 176.838 97.6944 176.511Z" fill="#263238"/>
<path d="M98.4337 176.597C98.7257 176.717 99.0521 176.992 99.3698 176.949C99.6876 176.906 99.9367 176.485 100.1 176.09C100.1 176.09 100.151 176.09 100.16 176.09C100.297 176.717 100.22 177.422 99.6361 177.662C99.0521 177.903 98.5797 177.422 98.3049 176.803C98.2276 176.743 98.3135 176.546 98.4337 176.597Z" fill="#263238"/>
<path d="M92.3777 188.269C92.6525 188.492 92.9274 188.801 93.3138 188.801C93.7024 188.758 94.0773 188.632 94.4132 188.432C94.4132 188.432 94.4819 188.432 94.4647 188.483C94.3332 188.703 94.1449 188.882 93.9196 189.003C93.6943 189.124 93.4405 189.182 93.185 189.17C92.9738 189.126 92.78 189.022 92.6274 188.869C92.4748 188.717 92.3701 188.523 92.3262 188.312C92.2575 188.26 92.3348 188.234 92.3777 188.269Z" fill="#263238"/>
<path d="M96.1913 183.528C96.4121 184.268 96.5955 185.019 96.741 185.778C96.741 185.847 96.5778 185.907 96.3373 185.958C95.7272 186.166 95.0717 186.201 94.4429 186.06C93.8141 185.919 93.2363 185.607 92.7731 185.159C92.7603 185.146 92.7529 185.128 92.752 185.11C92.7512 185.091 92.757 185.073 92.7685 185.059C92.7799 185.044 92.7962 185.034 92.8144 185.03C92.8326 185.027 92.8515 185.03 92.8676 185.039C93.8926 185.542 95.0537 185.695 96.1741 185.477C96.1741 185.271 95.3153 182.901 95.4441 182.901C96.0202 182.873 96.5974 182.92 97.1618 183.038C96.303 179.843 94.9889 176.811 94.2074 173.591C94.2053 173.569 94.2102 173.547 94.2214 173.528C94.2325 173.51 94.2493 173.495 94.2694 173.486C94.2894 173.478 94.3117 173.476 94.333 173.481C94.3542 173.485 94.3734 173.497 94.3877 173.513C95.9253 176.716 97.1367 180.065 98.0035 183.51C98.0894 183.94 96.5091 183.614 96.1913 183.528Z" fill="#263238"/>
<path d="M96.2603 185.675C95.9644 186.353 95.5003 186.944 94.9119 187.393C94.5851 187.63 94.1908 187.756 93.7868 187.753C92.928 187.753 92.6961 186.989 92.6875 186.302C92.6866 185.938 92.727 185.575 92.8078 185.22C93.881 185.735 95.0903 185.894 96.2603 185.675Z" fill="#263238"/>
<path d="M94.9119 187.384C94.5851 187.622 94.1908 187.748 93.7868 187.745C92.928 187.745 92.6961 186.98 92.6875 186.293C93.1268 186.201 93.5846 186.258 93.9878 186.455C94.3909 186.653 94.7163 186.98 94.9119 187.384Z" fill="#FF9CBD"/>
<path d="M76.1811 185.177C77.7958 184.644 80.8447 179.01 78.8607 171.083C78.8607 171.083 80.149 178.323 79.8914 179.5C79.6337 180.676 81.6091 176.339 80.0889 169.924C82.4745 170.821 84.9761 171.374 87.518 171.564C90.7472 171.564 92.5852 171.083 92.7398 170.808C92.8944 170.533 88.102 170.319 86.5389 169.262C86.5389 169.262 95.5224 170.834 99.2842 170.121C99.7222 170.044 97.8843 161.146 91.1938 158.956C84.5034 156.766 76.5504 163.19 74.7554 166.188C74.7554 166.188 72.0071 167.356 70.0404 172.397C68.0736 177.439 74.4549 185.752 76.1811 185.177Z" fill="#263238"/>
<path d="M77.7774 184.601C77.7774 184.601 73.6807 180.402 71.7655 181.939C69.8502 183.476 73.4316 189.943 76.1113 190.467C76.4504 190.563 76.8057 190.589 77.155 190.542C77.5043 190.495 77.8403 190.377 78.1422 190.195C78.4441 190.013 78.7054 189.771 78.9101 189.484C79.1147 189.197 79.2583 188.871 79.3319 188.526L77.7774 184.601Z" fill="#D3766A"/>
<path d="M72.8056 183.794C72.7627 183.794 72.7627 183.854 72.8056 183.863C74.6951 184.284 75.8975 185.778 76.8336 187.376C76.6982 187.218 76.5302 187.091 76.3412 187.004C76.1522 186.917 75.9466 186.872 75.7386 186.872C75.5306 186.872 75.325 186.917 75.136 187.004C74.947 187.091 74.779 187.218 74.6436 187.376C74.6006 187.376 74.6436 187.479 74.7123 187.462C75.0069 187.31 75.3416 187.254 75.6697 187.301C75.9977 187.349 76.3026 187.498 76.5416 187.728C76.942 188.095 77.302 188.504 77.6152 188.947C77.7269 189.093 77.9931 188.947 77.9072 188.784C77.5465 186.474 75.2705 183.597 72.8056 183.794Z" fill="#263238"/>
<path d="M65.2811 214.266C60.755 239.937 65.1351 259.167 69.4895 261.555C81.23 267.962 109.426 254.959 117.379 252.374C120.557 251.334 105.956 226.737 102.658 228.266C94.9286 231.838 84.0985 237.902 83.6605 237.85C82.8017 237.764 81.771 231.211 77.2878 212.085C73.6549 196.677 67.1362 203.771 65.2811 214.266Z" fill="#D3766A"/>
<path d="M143.007 216.095C143.814 219.325 135.69 220.63 135.69 220.63C137.04 221.116 138.179 222.057 138.91 223.293C140.096 225.526 137.107 228.351 137.107 228.351C138.402 229.144 139.429 230.308 140.053 231.692C140.972 233.942 138.335 237.232 138.335 237.232C139.123 238.616 139.385 240.238 139.073 241.801C138.077 245.94 131.73 247.572 128.003 249.359C124.009 251.274 117.396 251.978 114.399 253.326L101.404 229.519C101.404 229.519 113.961 216.224 121.158 214.163C125.134 212.995 141.779 211.166 143.007 216.095Z" fill="#D3766A"/>
<path d="M135.605 220.562C131.087 220.364 126.527 221.249 122.138 222.15C122.123 222.156 122.11 222.166 122.1 222.179C122.091 222.192 122.086 222.207 122.086 222.223C122.086 222.24 122.091 222.255 122.1 222.268C122.11 222.281 122.123 222.291 122.138 222.296C126.492 221.352 131.207 221.549 135.587 220.776C135.611 220.772 135.633 220.759 135.65 220.741C135.666 220.723 135.676 220.7 135.678 220.676C135.68 220.651 135.674 220.627 135.661 220.606C135.647 220.586 135.628 220.57 135.605 220.562Z" fill="#263238"/>
<path d="M136.875 228.059C135.844 228.113 134.825 228.3 133.843 228.617C132.787 228.892 131.739 229.184 130.682 229.476C128.587 230.095 126.5 230.756 124.439 231.477C124.344 231.477 124.37 231.658 124.439 231.632C126.526 231.022 128.63 230.447 130.751 229.914C131.807 229.648 132.872 229.399 133.929 229.15C134.951 228.973 135.95 228.685 136.909 228.291C136.924 228.274 136.934 228.254 136.941 228.233C136.947 228.212 136.948 228.189 136.945 228.167C136.942 228.145 136.934 228.124 136.922 228.105C136.91 228.087 136.893 228.071 136.875 228.059Z" fill="#263238"/>
<path d="M138.284 237.257C137.351 237.316 136.436 237.537 135.579 237.91L132.719 238.769C130.812 239.353 128.905 239.928 126.981 240.444C126.887 240.444 126.913 240.624 126.981 240.598C128.94 240.083 130.906 239.602 132.865 239.069C133.818 238.812 134.78 238.546 135.733 238.271C136.643 238.117 137.516 237.797 138.31 237.326C138.313 237.32 138.314 237.313 138.314 237.306C138.315 237.299 138.314 237.293 138.311 237.286C138.309 237.28 138.305 237.274 138.301 237.269C138.296 237.264 138.29 237.26 138.284 237.257Z" fill="#263238"/>
<path d="M83.627 237.85C86.7016 236.081 89.8193 234.415 92.9455 232.697L97.6777 230.241L100.057 229.047C100.866 228.625 101.7 228.255 102.556 227.939L102.401 228.025C104.497 225.989 106.601 223.971 108.826 222.073C109.925 221.12 111.041 220.175 112.201 219.29C113.344 218.376 114.562 217.56 115.842 216.851C114.636 217.656 113.488 218.546 112.407 219.514C111.308 220.458 110.217 221.42 109.152 222.416C107.039 224.409 104.918 226.401 102.874 228.428L102.822 228.471L102.719 228.514C101.989 228.781 101.148 229.219 100.366 229.579L97.9698 230.747L93.2203 233.126C90.0426 234.75 86.8734 236.338 83.627 237.85Z" fill="#263238"/>
<path d="M60.918 236.596L81.4359 226.29C81.4359 226.29 78.8594 215.039 76.5662 209.01C73.5259 201.04 69.8586 200.301 66.26 210.109C63.8037 216.679 60.918 236.596 60.918 236.596Z" fill="#EBEBEB"/>
<path d="M62.0265 233.607C64.9037 231.89 67.8066 230.24 70.7782 228.712C72.264 227.947 73.767 227.2 75.27 226.479C76.773 225.757 78.3619 225.199 79.8563 224.46C79.9335 224.46 79.9937 224.555 79.9078 224.589C78.3876 225.242 76.9276 226.118 75.4418 226.865C73.956 227.612 72.453 228.36 70.9672 229.124C67.9955 230.644 65.0153 232.156 62.0781 233.745C62.0008 233.779 61.9492 233.65 62.0265 233.607Z" fill="#263238"/>
<path d="M63.3753 235.325C62.5852 235.806 61.7865 236.253 60.9963 236.708L60.7129 236.871L60.7558 236.536C61.065 233.694 61.4687 230.876 61.9668 228.068C62.4649 225.26 63.0404 222.46 63.8048 219.711C63.633 221.129 63.444 222.537 63.2293 223.946C63.0146 225.354 62.8171 226.763 62.5852 228.171C62.1386 230.98 61.6319 233.788 61.0822 236.588L60.8417 236.407C61.6834 236.081 62.5165 235.703 63.3753 235.325Z" fill="#263238"/>
<path d="M62.6799 222.571C62.7184 223.229 62.7184 223.889 62.6799 224.547C62.66 225.205 62.6055 225.861 62.5167 226.513C62.4078 225.199 62.4481 223.877 62.6369 222.571H62.6799Z" fill="#263238"/>
<path d="M78.9369 227.595C79.7272 227.116 80.5413 226.678 81.3761 226.281C81.0411 224.959 80.689 223.653 80.3712 222.331C80.208 221.669 80.062 221.008 79.9246 220.347C79.7872 219.685 79.5553 218.783 79.4179 218.139C79.4179 218.036 79.5295 218.002 79.5553 218.096C79.8215 218.955 79.9847 219.548 80.208 220.261C80.4313 220.974 80.5859 221.549 80.7577 222.193C81.1098 223.559 81.5478 225.002 81.8398 226.384C80.9145 226.879 79.9561 227.31 78.9713 227.673C78.9615 227.675 78.9511 227.674 78.9421 227.67C78.933 227.665 78.9258 227.658 78.9217 227.648C78.9176 227.639 78.9169 227.629 78.9196 227.619C78.9224 227.609 78.9286 227.601 78.9369 227.595Z" fill="#263238"/>
<path d="M80.5784 219.007C80.7158 219.817 80.7158 220.644 80.5784 221.455C80.4296 220.645 80.4296 219.816 80.5784 219.007Z" fill="#263238"/>
<path d="M161.258 251.119H101.533V253.799H161.258V251.119Z" fill="#C7C7C7"/>
<path d="M114.314 251.119L112.27 253.799H161.258V251.119H114.314Z" fill="#A6A6A6"/>
<path d="M116.873 253.79H175.077L179.921 214.266H121.717L116.873 253.79Z" fill="#C7C7C7"/>
<path d="M144.853 234.028C144.838 234.492 144.917 234.955 145.086 235.387C145.255 235.82 145.509 236.214 145.834 236.546C146.159 236.877 146.548 237.139 146.977 237.316C147.407 237.493 147.867 237.581 148.332 237.575C149.277 237.571 150.183 237.198 150.857 236.535C151.53 235.873 151.919 234.973 151.939 234.028C151.953 233.569 151.874 233.111 151.708 232.682C151.541 232.253 151.29 231.862 150.97 231.532C150.649 231.202 150.266 230.94 149.842 230.761C149.419 230.582 148.963 230.49 148.504 230.49C147.552 230.481 146.635 230.847 145.952 231.509C145.268 232.172 144.874 233.077 144.853 234.028Z" fill="white"/>
<path d="M179.449 218.088C181.639 221.472 187.059 225.431 187.806 228.334C188.017 229.044 187.993 229.802 187.737 230.497C187.482 231.192 187.009 231.786 186.389 232.19C186.389 232.19 189.524 233.272 189.764 236.021C189.893 237.429 187.737 238.872 187.737 238.872C187.737 238.872 190.219 239.843 190.314 242.307C190.365 244.266 188.201 245.417 188.201 245.417C188.201 245.417 190.142 247.461 189.558 249.47C188.364 253.55 171.703 255.748 168.319 249.951C166.738 247.254 170.844 246.937 170.844 246.937C170.844 246.937 164.832 245.966 164.291 242.539C163.75 239.113 169.1 239.027 169.1 239.027C169.1 239.027 163.294 238.039 163.088 234.432C162.874 230.679 168.241 231.512 168.241 231.512C168.241 231.512 164.205 229.485 164.686 226.685C165.467 222.073 174.992 226.977 178.522 225.629L179.449 218.088Z" fill="#D3766A"/>
<path d="M187.858 245.631C187.869 245.631 187.88 245.636 187.888 245.644C187.896 245.652 187.901 245.663 187.901 245.674C187.901 245.686 187.896 245.697 187.888 245.705C187.88 245.713 187.869 245.717 187.858 245.717C182.352 247.878 176.319 248.312 170.56 246.963C170.38 246.911 170.371 246.602 170.56 246.61C176.343 247.128 182.17 246.798 187.858 245.631Z" fill="#263238"/>
<path d="M187.823 238.898C187.892 238.898 187.909 238.984 187.823 239.01C182.344 241.105 175.052 241.586 168.868 239.199C168.654 239.113 168.551 238.829 168.8 238.907C173.06 240.204 182.515 240.066 187.823 238.898Z" fill="#263238"/>
<path d="M167.794 231.177C173.806 233.273 179.903 233.23 186.147 232.285C186.224 232.285 186.233 232.388 186.147 232.422C183.219 233.711 179.173 233.9 176.013 233.779C173.08 233.726 170.213 232.902 167.699 231.392C167.639 231.332 167.682 231.134 167.794 231.177Z" fill="#263238"/>
<path d="M297.524 331.044C296.708 333.251 256.702 382.987 253.98 383.915C252.949 384.276 245.391 378.873 236.382 372.08C234.45 370.611 232.457 369.091 230.439 367.528C217.341 357.411 203.686 346.366 203.686 346.366L230.31 313.025L256.333 335.098L262.044 339.942C262.044 339.942 285.878 327.755 288.978 327.059C292.078 326.363 298.339 328.845 297.524 331.044Z" fill="#D3766A"/>
<path d="M297.531 331.052C296.672 333.251 256.701 382.987 253.979 383.923C253.077 384.241 247.168 380.144 239.688 374.57C247.323 369.014 276.3 342.913 280.191 335.845C282.235 332.126 279.246 332.152 275.587 333.182C281.599 330.236 287.568 327.385 289.02 327.05C292.112 326.363 298.338 328.845 297.531 331.052Z" fill="#263238"/>
<path d="M254.977 330.065L227.227 367.511L133.613 302.53L124.552 296.304C124.552 296.304 121.975 298.021 118.145 300.151C112.803 303.106 104.97 306.85 98.039 307.881C86.4102 309.599 67.0002 309.418 57.2007 296.312C48.9472 285.285 53.4304 270.89 53.4304 270.89L66.1929 265.385C66.1929 265.385 96.3986 240.221 116.006 239.465C124.311 239.13 136.412 245.477 147.62 252.013C158.828 258.548 254.977 330.065 254.977 330.065Z" fill="#37474F"/>
<path d="M124.55 296.304C124.55 296.304 121.974 298.021 118.143 300.151C111.341 292.009 96.938 277.211 96.5 276.688L124.55 296.304Z" fill="#263238"/>
<path d="M77.2624 256.925C75.4588 258.179 73.7067 259.502 71.9289 260.799C70.1511 262.096 68.3647 263.255 66.6985 264.638C65.0323 266.021 63.4005 267.549 61.8031 269.061C61.0387 269.791 60.2743 270.53 59.5271 271.285C58.7413 272.014 58.0147 272.803 57.3542 273.647C57.2941 273.724 57.4143 273.819 57.483 273.776C58.3319 273.17 59.1409 272.51 59.905 271.801C60.7638 271.088 61.6227 270.366 62.43 269.654C64.0532 268.271 65.7108 266.931 67.3255 265.548C68.9401 264.165 70.4259 262.671 72.0234 261.254C73.6208 259.837 75.5275 258.368 77.2967 256.96C77.3311 256.96 77.2967 256.9 77.2624 256.925Z" fill="#263238"/>
<path d="M248.466 328.725C246.663 330.666 245.031 332.762 243.313 334.814C241.595 336.867 239.955 338.945 238.289 341.015C234.965 345.181 231.607 349.312 228.335 353.52C226.54 355.83 224.762 358.158 223.096 360.554C223.018 360.666 223.19 360.786 223.276 360.691C226.857 356.749 230.147 352.55 233.453 348.401C236.76 344.253 240.092 340.105 243.373 335.854C245.16 333.552 247.006 331.259 248.646 328.845C248.689 328.751 248.526 328.639 248.466 328.725Z" fill="#263238"/>
<path d="M171.607 329.112C166.952 325.436 162.116 321.966 157.289 318.522C152.463 315.078 147.679 311.651 142.801 308.336C141.401 307.383 139.984 306.447 138.575 305.511C137.167 304.574 135.698 303.707 134.324 302.737C134.238 302.685 134.169 302.814 134.247 302.874C135.518 303.784 136.711 304.798 137.957 305.742C139.202 306.687 140.327 307.555 141.521 308.439C143.866 310.157 146.227 311.875 148.589 313.592C153.376 317.028 158.2 320.435 163.061 323.813C165.826 325.702 168.575 327.609 171.4 329.412C171.572 329.498 171.77 329.232 171.607 329.112Z" fill="#263238"/>
<path d="M201.556 290.472C197.261 286.908 192.641 283.696 188.123 280.398C183.606 277.1 179.019 273.69 174.433 270.383C169.847 267.077 165.346 263.805 160.795 260.524C156.389 257.338 152 254.1 147.345 251.274C144.768 249.737 142.192 248.302 139.504 246.98C136.9 245.647 134.188 244.538 131.396 243.665C131.377 243.657 131.355 243.657 131.336 243.665C131.316 243.673 131.301 243.688 131.293 243.708C131.285 243.727 131.285 243.749 131.293 243.768C131.301 243.787 131.317 243.803 131.336 243.811C133.638 245.09 136.043 246.164 138.37 247.401C140.697 248.637 142.922 249.908 145.146 251.257C149.767 254.065 154.13 257.269 158.51 260.395C167.614 266.939 176.7 273.518 185.873 279.977C191.026 283.584 196.025 287.397 201.332 290.721C201.521 290.858 201.71 290.601 201.556 290.472Z" fill="#263238"/>
</svg>
