<svg width="432" height="382" viewBox="0 0 432 382" fill="none" xmlns="http://www.w3.org/2000/svg">
<path d="M431.93 335.696H0V335.952H431.93V335.696Z" fill="#E6E6E6"/>
<path d="M107.826 351.209H79.2148V351.465H107.826V351.209Z" fill="#E6E6E6"/>
<path d="M70.1634 351.209H53.5859V351.465H70.1634V351.209Z" fill="#E6E6E6"/>
<path d="M181.886 354.982H165.309V355.238H181.886V354.982Z" fill="#E6E6E6"/>
<path d="M268.322 360.704H231.012V360.96H268.322V360.704Z" fill="#E6E6E6"/>
<path d="M223.326 360.704H217.857V360.96H223.326V360.704Z" fill="#E6E6E6"/>
<path d="M391.631 354.982H310.705V355.238H391.631V354.982Z" fill="#E6E6E6"/>
<path d="M204.735 289.966H37.9318C36.6251 289.963 35.3727 289.345 34.4495 288.247C33.5263 287.15 33.0078 285.662 33.0078 284.111V5.80341C33.0192 4.26133 33.5427 2.78685 34.4647 1.70023C35.3866 0.613622 36.6325 0.00264167 37.9318 0H204.735C206.043 0 207.297 0.616831 208.222 1.7148C209.148 2.81276 209.667 4.30192 209.667 5.85468V284.111C209.667 285.664 209.148 287.153 208.222 288.251C207.297 289.349 206.043 289.966 204.735 289.966V289.966ZM37.9318 0.205068C36.6824 0.207785 35.4849 0.798805 34.6022 1.8484C33.7195 2.898 33.2238 4.32042 33.2238 5.80341V284.111C33.2238 285.594 33.7195 287.016 34.6022 288.066C35.4849 289.116 36.6824 289.707 37.9318 289.709H204.735C205.985 289.707 207.183 289.116 208.067 288.067C208.951 287.017 209.449 285.595 209.451 284.111V5.80341C209.449 4.31947 208.951 2.89709 208.067 1.84778C207.183 0.798472 205.985 0.207779 204.735 0.205068H37.9318Z" fill="#E6E6E6"/>
<path d="M391.596 289.966H224.784C223.477 289.963 222.223 289.345 221.299 288.248C220.374 287.151 219.854 285.663 219.852 284.111V5.80341C219.865 4.2604 220.391 2.78592 221.314 1.69959C222.237 0.613264 223.484 0.00261286 224.784 0H391.596C392.893 0.00533637 394.137 0.617509 395.057 1.70383C395.977 2.79016 396.5 4.2631 396.511 5.80341V284.111C396.511 285.66 395.994 287.146 395.072 288.244C394.151 289.341 392.901 289.96 391.596 289.966V289.966ZM224.784 0.205068C223.534 0.207779 222.336 0.798472 221.452 1.84778C220.567 2.89709 220.07 4.31947 220.068 5.80341V284.111C220.07 285.595 220.567 287.017 221.452 288.067C222.336 289.116 223.534 289.707 224.784 289.709H391.596C392.846 289.707 394.044 289.116 394.928 288.067C395.812 287.017 396.31 285.595 396.312 284.111V5.80341C396.31 4.31947 395.812 2.89709 394.928 1.84778C394.044 0.798472 392.846 0.207779 391.596 0.205068H224.784Z" fill="#E6E6E6"/>
<path d="M230.996 248.111H212V337.551H230.996V248.111Z" fill="#E0E0E0"/>
<path d="M227.385 337.551H230.996V325.37H223.602L227.385 337.551Z" fill="#FAFAFA"/>
<path d="M147.754 248.111H128.758V337.551H147.754V248.111Z" fill="#E0E0E0"/>
<path d="M230.995 248.111H144.609V330.076H230.995V248.111Z" fill="#FAFAFA"/>
<path d="M227.861 252.141V273.827H147.721V252.141H227.836H227.861ZM228.172 251.741H147.41V274.217H228.198V251.741H228.172Z" fill="#E0E0E0"/>
<path d="M148.212 337.551H144.609V325.37H151.995L148.212 337.551Z" fill="#FAFAFA"/>
<path d="M185.895 262.978C185.895 263.427 186.006 263.865 186.216 264.237C186.426 264.61 186.724 264.9 187.073 265.072C187.422 265.243 187.806 265.288 188.176 265.201C188.546 265.113 188.887 264.898 189.154 264.581C189.421 264.264 189.602 263.86 189.676 263.42C189.75 262.981 189.712 262.525 189.567 262.111C189.423 261.697 189.178 261.343 188.864 261.094C188.55 260.845 188.181 260.712 187.804 260.712C187.297 260.712 186.812 260.951 186.454 261.376C186.096 261.801 185.895 262.377 185.895 262.978V262.978Z" fill="#E6E6E6"/>
<path d="M227.861 278.246V299.932H147.721V278.246H227.836H227.861ZM228.172 277.856H147.41V300.332H228.198V277.867L228.172 277.856Z" fill="#E0E0E0"/>
<path d="M185.895 289.145C185.895 289.594 186.006 290.032 186.216 290.404C186.426 290.777 186.724 291.067 187.073 291.239C187.422 291.41 187.806 291.455 188.176 291.368C188.546 291.28 188.887 291.065 189.154 290.748C189.421 290.431 189.602 290.027 189.676 289.587C189.75 289.148 189.712 288.692 189.567 288.278C189.423 287.864 189.178 287.51 188.864 287.261C188.55 287.012 188.181 286.879 187.804 286.879C187.297 286.879 186.812 287.118 186.454 287.543C186.096 287.968 185.895 288.544 185.895 289.145Z" fill="#E6E6E6"/>
<path d="M227.861 304.361V326.057H147.721V304.361H227.836H227.861ZM228.172 303.961H147.41V326.447H228.198V303.961H228.172Z" fill="#E0E0E0"/>
<path d="M185.895 315.21C185.896 315.658 186.01 316.095 186.22 316.466C186.431 316.837 186.73 317.126 187.079 317.296C187.428 317.466 187.812 317.509 188.181 317.421C188.551 317.332 188.891 317.116 189.157 316.798C189.423 316.481 189.604 316.077 189.677 315.638C189.75 315.199 189.711 314.744 189.567 314.33C189.422 313.917 189.177 313.563 188.863 313.315C188.55 313.066 188.181 312.934 187.804 312.934C187.552 312.934 187.303 312.993 187.071 313.107C186.839 313.222 186.628 313.389 186.451 313.601C186.273 313.812 186.133 314.063 186.037 314.34C185.942 314.616 185.893 314.911 185.895 315.21V315.21Z" fill="#E6E6E6"/>
<path d="M136.153 196.168H117.156V337.562H136.153V196.168Z" fill="#E0E0E0"/>
<path d="M132.543 337.551H136.154V325.37H128.768L132.543 337.551Z" fill="#FAFAFA"/>
<path d="M65.1603 196.168H46.1641V337.562H65.1603V196.168Z" fill="#E0E0E0"/>
<path d="M136.153 196.168H62.0078V330.087H136.153V196.168Z" fill="#FAFAFA"/>
<path d="M132.956 199.941V230.26H65.2037V199.941H132.956V199.941ZM133.354 199.479H64.7891V230.701H133.336V199.49L133.354 199.479Z" fill="#E0E0E0"/>
<path d="M132.956 233.961V314.379H100.682V233.961H132.956ZM133.353 233.49H100.293V314.85H133.353V233.49Z" fill="#E0E0E0"/>
<path d="M97.4775 233.961V314.379H65.2037V233.961H97.4775ZM97.8663 233.49H64.7891V314.85H97.849V233.49H97.8663Z" fill="#E0E0E0"/>
<path d="M65.6187 337.551H62.0078V325.37H69.4025L65.6187 337.551Z" fill="#FAFAFA"/>
<path d="M97.168 215.116C97.1663 215.566 97.2773 216.007 97.487 216.383C97.6967 216.759 97.9956 217.052 98.3459 217.226C98.6961 217.4 99.082 217.446 99.4546 217.36C99.8271 217.273 100.17 217.057 100.439 216.739C100.708 216.421 100.891 216.016 100.966 215.574C101.041 215.132 101.003 214.674 100.858 214.257C100.713 213.841 100.468 213.485 100.152 213.234C99.8365 212.983 99.4654 212.85 99.0858 212.85C98.5786 212.85 98.0921 213.088 97.7327 213.513C97.3733 213.937 97.1703 214.514 97.168 215.116Z" fill="#E6E6E6"/>
<path d="M104.008 272.258C104.008 272.708 104.121 273.149 104.332 273.523C104.543 273.898 104.843 274.19 105.194 274.362C105.545 274.534 105.931 274.578 106.303 274.489C106.675 274.401 107.017 274.183 107.285 273.864C107.553 273.544 107.735 273.138 107.808 272.695C107.881 272.253 107.841 271.795 107.695 271.38C107.548 270.964 107.301 270.609 106.985 270.36C106.668 270.111 106.297 269.979 105.917 269.981C105.666 269.981 105.417 270.04 105.184 270.155C104.952 270.269 104.741 270.437 104.564 270.649C104.387 270.86 104.246 271.111 104.151 271.387C104.055 271.664 104.007 271.959 104.008 272.258V272.258Z" fill="#E6E6E6"/>
<path d="M90.334 272.258C90.3357 272.705 90.4491 273.143 90.6599 273.514C90.8708 273.885 91.1695 274.174 91.5185 274.344C91.8675 274.514 92.2511 274.557 92.6209 274.469C92.9906 274.38 93.33 274.163 93.5961 273.846C93.8623 273.529 94.0432 273.125 94.1162 272.686C94.1892 272.246 94.1508 271.791 94.0061 271.378C93.8614 270.964 93.6167 270.611 93.3029 270.363C92.9891 270.114 92.6204 269.981 92.2431 269.981C91.9917 269.981 91.7427 270.04 91.5105 270.155C91.2784 270.269 91.0675 270.437 90.8901 270.649C90.7127 270.86 90.5723 271.111 90.4768 271.387C90.3814 271.664 90.3329 271.959 90.334 272.258V272.258Z" fill="#E6E6E6"/>
<path d="M88.1734 156.743H80.1655C80.9034 161.354 81.3682 166.02 81.5563 170.708C81.5563 175.835 75.4574 196.167 84.1479 196.167C92.8383 196.167 86.7394 175.886 86.7394 170.708C86.9418 166.019 87.421 161.353 88.1734 156.743V156.743Z" fill="#E0E0E0"/>
<path d="M57.707 177.537V183.689C57.7161 186.987 58.824 190.146 60.7887 192.478C62.7535 194.811 65.4157 196.125 68.1943 196.136H73.3775C76.156 196.125 78.8182 194.811 80.783 192.478C82.7478 190.146 83.8556 186.987 83.8647 183.689V177.537H57.707Z" fill="#F5F5F5"/>
<path d="M169.031 235.069C169.031 242.246 175.795 248.111 184.062 248.111H191.526C199.793 248.111 206.557 242.246 206.557 235.069H169.031Z" fill="#E0E0E0"/>
<path d="M366.804 224.549C362.278 228.937 356.023 236.966 350.304 248.265C346.486 255.791 344.188 263.645 343.178 274.083C343.178 262.292 343.238 249.629 343.273 237.673C344.422 234.597 347.048 227.502 348.931 221.904C355.211 203.212 357.57 198.608 363.211 182.49C370.752 160.958 378.475 135.468 376.263 137.508C371.754 141.661 354.477 180.06 352.611 185.555C347.525 200.222 344.381 215.734 343.29 231.542C343.29 220.263 343.359 210.01 343.394 202.053C343.515 176.102 343.886 167.725 344.067 165.141C344.767 163.828 345.588 162.301 346.072 161.48C350.132 154.508 351.695 148.582 355.514 138.185C360.939 123.471 365.603 97.3353 364.239 98.6477C358.554 104.144 354.08 115.935 348.188 130.977C342.296 146.018 343.981 154.662 342.815 167.499C342.573 170.021 342.383 179.537 342.245 192.712C340.724 178.665 337.856 169.417 332.63 161.009C326.203 150.663 319.983 143.681 315.422 140.03C310.861 136.38 323.3 161.788 329.244 172.841C334.539 182.725 339.42 191.431 342.201 200.013C342.055 217.884 341.985 240.503 341.985 261.533C340.621 251.956 338.392 241.631 335.42 233.644C331.844 224.047 326.35 209.323 321.97 204.329C320.925 203.13 326.548 231.767 330.159 239.375C333.77 246.983 336.422 254.171 338.694 258.488C339.221 259.513 340.983 263.379 341.985 265.614C341.985 291.319 342.106 313.999 342.296 321.72H343.229C343.169 319.731 343.152 306.648 343.178 289.34C345.432 279.948 350.581 269.223 354.831 259.441C359.461 248.85 371.331 220.191 366.804 224.549Z" fill="#E0E0E0"/>
<path d="M356.289 337.552H329.215L327.168 306.053H358.336L356.289 337.552Z" fill="#F0F0F0"/>
<path d="M360.351 309.724H325.149L324.146 299.091H361.362L360.351 309.724Z" fill="#F5F5F5"/>
<path d="M107.343 21.0195H58.9238V84.1291H107.343V21.0195Z" fill="#E0E0E0"/>
<path d="M112.588 21.0195H62.5703V84.1291H112.588V21.0195Z" fill="#F5F5F5"/>
<path d="M108.398 79.156V25.9922L66.7604 25.9922V79.156H108.398Z" fill="white"/>
<path d="M98.2969 66.2574V38.8706H76.8472V66.2574H98.2969Z" fill="#F5F5F5"/>
<path d="M354.225 28.3711H309.244V87H354.225V28.3711Z" fill="#E0E0E0"/>
<path d="M359.099 28.3711H312.641V87H359.099V28.3711Z" fill="#F5F5F5"/>
<path d="M355.211 82.3754V32.9951H316.536V82.3754H355.211Z" fill="white"/>
<path d="M335.869 72.0093C342.534 72.0093 347.937 65.5962 347.937 57.6853C347.937 49.7744 342.534 43.3613 335.869 43.3613C329.204 43.3613 323.801 49.7744 323.801 57.6853C323.801 65.5962 329.204 72.0093 335.869 72.0093Z" fill="#F5F5F5"/>
<path d="M157.646 58.6489H121.727V105.466H157.646V58.6489Z" fill="#E0E0E0"/>
<path d="M161.532 58.6489H124.43V105.466H161.532V58.6489Z" fill="#F5F5F5"/>
<path d="M158.424 101.775V62.3403H127.541V101.775H158.424Z" fill="white"/>
<path d="M142.986 72.0815L134.537 89.4508H151.434L142.986 72.0815Z" fill="#F5F5F5"/>
<path d="M215.966 382C308.471 382 383.46 376.803 383.46 370.393C383.46 363.983 308.471 358.786 215.966 358.786C123.462 358.786 48.4727 363.983 48.4727 370.393C48.4727 376.803 123.462 382 215.966 382Z" fill="#F5F5F5"/>
<path d="M211.542 15.9639H206.021V17.02H211.542V15.9639Z" fill="#9BA59F"/>
<path d="M282.998 57.7634L282.33 75.3608L283.219 75.4084L283.887 57.8109L282.998 57.7634Z" fill="#9BA59F"/>
<path d="M281.28 20.7012H179.345L169.859 272.647H271.795L281.28 20.7012Z" fill="#9BA59F"/>
<path opacity="0.56" d="M278.241 24.167H176.305L166.82 276.113H268.756L278.241 24.167Z" fill="#FAFAFA"/>
<path opacity="0.07" d="M275.199 27.6221H173.263L163.77 279.568H265.705L275.199 27.6221Z" fill="#9BA59F"/>
<path d="M263.597 137.508H176.589L175.863 156.784H262.871L263.597 137.508Z" fill="white"/>
<path d="M224.439 123.44H177.116L176.797 132.063H224.119L224.439 123.44Z" fill="#9BA59F"/>
<path d="M261.636 189.534H174.628L173.902 208.81H260.91L261.636 189.534Z" fill="white"/>
<path opacity="0.47" d="M245.681 234.843H187.171L186.299 257.944H244.808L245.681 234.843Z" fill="#5B2E4F"/>
<path d="M241.769 261.533H183.26C183.234 261.541 183.208 261.541 183.182 261.533C183.174 261.503 183.174 261.47 183.182 261.441L184.046 238.329C184.046 238.314 184.049 238.298 184.054 238.284C184.059 238.269 184.067 238.256 184.077 238.246C184.087 238.235 184.098 238.227 184.111 238.222C184.123 238.217 184.137 238.215 184.15 238.217H242.659C242.67 238.21 242.682 238.207 242.694 238.207C242.705 238.207 242.717 238.21 242.728 238.217C242.734 238.229 242.737 238.243 242.737 238.258C242.737 238.272 242.734 238.286 242.728 238.299L241.881 261.461C241.871 261.485 241.855 261.505 241.835 261.518C241.815 261.531 241.792 261.536 241.769 261.533V261.533ZM183.364 261.287H241.666L242.529 238.422H184.227L183.364 261.287Z" fill="white"/>
<path d="M214.219 175.466H175.156L174.836 184.099H213.891L214.219 175.466Z" fill="#9BA59F"/>
<path d="M244.567 75.239C244.344 80.849 242.663 86.2395 239.756 90.6703C237.603 94.0172 234.833 96.7342 231.659 98.6129C228.484 100.492 224.989 101.482 221.442 101.508C218.575 101.534 215.735 100.863 213.095 99.5367C210.455 98.2103 208.072 96.2564 206.092 93.7954C204.113 91.3344 202.579 88.4184 201.584 85.227C200.59 82.0357 200.157 78.6366 200.312 75.239C200.616 68.1888 203.177 61.5426 207.472 56.6597C211.768 51.7768 217.473 49.026 223.42 48.9698C226.289 48.9381 229.133 49.6049 231.776 50.9291C234.419 52.2532 236.805 54.2066 238.787 56.6686C240.769 59.1305 242.304 62.0487 243.298 65.2428C244.293 68.4368 244.725 71.839 244.567 75.239V75.239Z" fill="white"/>
<path d="M246.647 54.4653C246.591 55.9569 246.144 57.3906 245.368 58.5666C244.795 59.4555 244.058 60.1772 243.213 60.6765C242.369 61.1759 241.44 61.4397 240.496 61.4478C239.582 61.4544 238.681 61.1953 237.871 60.693C237.061 60.1908 236.366 59.4607 235.849 58.5666C235.163 57.3584 234.824 55.9203 234.881 54.4653C234.965 52.5934 235.647 50.8299 236.788 49.5343C237.929 48.2387 239.444 47.5086 241.023 47.493C241.785 47.4847 242.54 47.6617 243.242 48.013C243.944 48.3644 244.578 48.8826 245.105 49.5358C245.632 50.1891 246.041 50.9634 246.306 51.8112C246.571 52.659 246.687 53.5622 246.647 54.4653V54.4653Z" fill="#9BA59F"/>
<path d="M185.962 147.146C185.921 147.972 185.617 148.749 185.112 149.32C184.607 149.891 183.939 150.213 183.241 150.222C182.905 150.227 182.571 150.149 182.26 149.995C181.95 149.84 181.669 149.612 181.436 149.324C181.203 149.035 181.022 148.693 180.904 148.319C180.787 147.944 180.736 147.545 180.753 147.146C180.791 146.318 181.093 145.538 181.599 144.967C182.105 144.395 182.776 144.074 183.475 144.07C183.811 144.067 184.144 144.145 184.454 144.3C184.764 144.455 185.044 144.683 185.277 144.971C185.51 145.259 185.691 145.601 185.809 145.975C185.927 146.349 185.979 146.747 185.962 147.146V147.146Z" fill="#263238"/>
<path d="M197.606 147.146C197.567 147.973 197.263 148.751 196.758 149.323C196.253 149.894 195.583 150.216 194.885 150.222C194.549 150.225 194.216 150.147 193.907 149.992C193.597 149.837 193.318 149.608 193.085 149.32C192.853 149.032 192.673 148.69 192.556 148.316C192.439 147.943 192.388 147.544 192.406 147.146C192.443 146.32 192.745 145.542 193.249 144.97C193.753 144.399 194.421 144.077 195.118 144.07C195.455 144.065 195.789 144.143 196.099 144.297C196.41 144.452 196.69 144.68 196.924 144.968C197.157 145.257 197.338 145.599 197.455 145.973C197.573 146.348 197.624 146.747 197.606 147.146V147.146Z" fill="#263238"/>
<path d="M209.261 147.146C209.221 147.973 208.918 148.751 208.413 149.323C207.907 149.894 207.238 150.216 206.54 150.222C206.203 150.225 205.87 150.147 205.56 149.992C205.25 149.837 204.97 149.609 204.737 149.321C204.504 149.033 204.323 148.691 204.205 148.317C204.088 147.943 204.035 147.545 204.052 147.146C204.091 146.319 204.395 145.541 204.9 144.969C205.405 144.398 206.075 144.077 206.773 144.07C207.11 144.065 207.444 144.143 207.754 144.297C208.065 144.452 208.345 144.68 208.578 144.968C208.812 145.257 208.992 145.599 209.11 145.973C209.227 146.348 209.279 146.747 209.261 147.146V147.146Z" fill="#263238"/>
<path d="M184.001 199.172C183.96 199.998 183.656 200.775 183.151 201.346C182.646 201.917 181.977 202.239 181.28 202.248C180.944 202.251 180.61 202.173 180.3 202.018C179.99 201.863 179.71 201.634 179.477 201.346C179.244 201.058 179.064 200.717 178.946 200.343C178.828 199.969 178.776 199.571 178.792 199.172C178.832 198.345 179.135 197.566 179.64 196.995C180.146 196.424 180.815 196.102 181.513 196.096C181.85 196.093 182.183 196.171 182.493 196.326C182.803 196.481 183.083 196.709 183.316 196.997C183.549 197.285 183.73 197.627 183.847 198.001C183.965 198.375 184.018 198.773 184.001 199.172Z" fill="#263238"/>
<path d="M195.645 199.172C195.606 199.997 195.304 200.774 194.8 201.345C194.297 201.916 193.629 202.239 192.933 202.248C192.596 202.253 192.262 202.175 191.952 202.021C191.641 201.866 191.361 201.638 191.127 201.35C190.894 201.061 190.713 200.719 190.596 200.345C190.478 199.97 190.427 199.571 190.445 199.172C190.484 198.345 190.788 197.566 191.293 196.995C191.798 196.424 192.468 196.102 193.166 196.096C193.502 196.092 193.835 196.171 194.144 196.326C194.454 196.481 194.733 196.71 194.966 196.998C195.198 197.286 195.378 197.628 195.495 198.001C195.612 198.375 195.663 198.774 195.645 199.172V199.172Z" fill="#263238"/>
<path d="M207.325 199.172C207.285 199.999 206.982 200.777 206.477 201.349C205.971 201.92 205.302 202.241 204.604 202.248C204.268 202.25 203.935 202.17 203.626 202.015C203.316 201.859 203.037 201.631 202.804 201.343C202.571 201.056 202.39 200.715 202.272 200.341C202.154 199.968 202.101 199.57 202.116 199.172C202.157 198.346 202.461 197.569 202.966 196.998C203.471 196.427 204.14 196.105 204.837 196.096C205.174 196.091 205.508 196.168 205.818 196.323C206.129 196.477 206.409 196.706 206.642 196.994C206.876 197.282 207.056 197.625 207.174 197.999C207.291 198.374 207.343 198.773 207.325 199.172V199.172Z" fill="#263238"/>
<path d="M218.954 199.172C218.912 199.998 218.608 200.775 218.103 201.346C217.598 201.917 216.93 202.239 216.233 202.248C215.897 202.25 215.564 202.17 215.255 202.015C214.945 201.859 214.666 201.631 214.433 201.343C214.2 201.055 214.019 200.715 213.901 200.341C213.783 199.968 213.73 199.57 213.745 199.172C213.786 198.346 214.09 197.569 214.595 196.998C215.1 196.427 215.769 196.105 216.466 196.096C216.802 196.093 217.136 196.171 217.446 196.326C217.755 196.481 218.035 196.709 218.268 196.997C218.501 197.285 218.682 197.627 218.8 198.001C218.918 198.375 218.97 198.773 218.954 199.172V199.172Z" fill="#263238"/>
<path d="M230.65 199.172C230.609 199.998 230.305 200.775 229.8 201.346C229.295 201.917 228.626 202.239 227.929 202.248C227.592 202.253 227.258 202.175 226.948 202.021C226.637 201.866 226.357 201.638 226.123 201.35C225.89 201.061 225.709 200.719 225.592 200.345C225.475 199.97 225.423 199.571 225.441 199.172C225.48 198.345 225.784 197.566 226.289 196.995C226.794 196.424 227.464 196.102 228.162 196.096C228.498 196.093 228.832 196.171 229.142 196.326C229.452 196.481 229.732 196.709 229.965 196.997C230.198 197.285 230.378 197.627 230.496 198.001C230.614 198.375 230.666 198.773 230.65 199.172Z" fill="#263238"/>
<path d="M228.881 73.8704C232.497 69.6736 232.689 62.9467 229.31 58.8454C225.931 54.7441 220.26 54.8215 216.644 59.0183C213.029 63.215 212.837 69.9419 216.216 74.0433C219.595 78.1446 225.265 78.0672 228.881 73.8704Z" fill="#5B2E4F"/>
<path opacity="0.1" d="M228.881 73.8704C232.497 69.6736 232.689 62.9467 229.31 58.8454C225.931 54.7441 220.26 54.8215 216.644 59.0183C213.029 63.215 212.837 69.9419 216.216 74.0433C219.595 78.1446 225.265 78.0672 228.881 73.8704Z" fill="white"/>
<path d="M239.755 90.6705C237.603 94.0173 234.833 96.7344 231.659 98.6131C228.484 100.492 224.989 101.482 221.442 101.508C218.002 101.543 214.608 100.572 211.558 98.6824C208.509 96.7924 205.899 94.0408 203.957 90.6705C208.155 85.7078 214.798 82.4678 222.159 82.4678C229.519 82.4678 235.928 85.7078 239.755 90.6705Z" fill="#5B2E4F"/>
<path opacity="0.1" d="M239.755 90.67C237.603 94.0168 234.833 96.7339 231.659 98.6126C228.484 100.491 224.989 101.482 221.442 101.508C218.002 101.542 214.608 100.572 211.558 98.6819C208.509 96.7919 205.899 94.0403 203.957 90.67C208.155 85.7074 214.798 82.4673 222.159 82.4673C229.519 82.4673 235.928 85.7074 239.755 90.67Z" fill="white"/>
<path d="M112.655 161.429C111.835 163.562 110.971 165.91 110.219 168.186C109.468 170.462 108.699 172.81 108.034 175.148C106.676 179.755 105.641 184.488 104.941 189.298L104.751 190.805C104.733 191.064 104.753 191.324 104.812 191.574C105.015 192.424 105.337 193.228 105.762 193.953C106.871 195.83 108.158 197.55 109.597 199.079C111.115 200.755 112.707 202.333 114.366 203.806C116.024 205.324 117.769 206.8 119.489 208.195L117.873 211.794C113.768 209.671 109.872 207.02 106.254 203.888C104.324 202.218 102.582 200.26 101.071 198.064C100.175 196.757 99.4768 195.276 99.0065 193.686C98.733 192.693 98.593 191.655 98.5918 190.61C98.5918 190.364 98.5918 190.005 98.5918 189.831V189.328L98.6782 188.303C99.1734 182.961 100.12 177.692 101.503 172.574C102.177 170.052 102.894 167.54 103.714 165.089C104.535 162.639 105.382 160.24 106.427 157.748L112.655 161.429Z" fill="#E58A7B"/>
<path d="M118.271 207.559L124.378 203.888L122.797 211.845C122.797 211.845 118.608 213.239 116.664 210.819L118.271 207.559Z" fill="#E58A7B"/>
<path d="M129.967 205.19L128.343 211.773L122.797 211.845L124.378 203.888L129.967 205.19Z" fill="#E58A7B"/>
<path d="M138.59 123.041C138.916 124.461 139.371 125.837 139.946 127.142C139.778 127.368 139.562 127.536 139.32 127.628C139.078 127.72 138.82 127.733 138.572 127.665L138.59 123.041Z" fill="#DF5753"/>
<path d="M138.406 123.102C138.764 123.102 139.054 122.575 139.054 121.923C139.054 121.272 138.764 120.744 138.406 120.744C138.048 120.744 137.758 121.272 137.758 121.923C137.758 122.575 138.048 123.102 138.406 123.102Z" fill="#263238"/>
<path d="M138.217 120.784L139.53 120.343C139.53 120.343 138.891 121.553 138.217 120.784Z" fill="#263238"/>
<path d="M121.717 130.566C122.503 135.334 123.289 144.08 120.473 147.269C120.473 147.269 121.578 152.109 129.051 152.109C137.266 152.109 132.973 147.269 132.973 147.269C128.489 145.998 128.602 142.05 129.388 138.338L121.717 130.566Z" fill="#E58A7B"/>
<path d="M119.532 119.698C119.946 127.665 119.981 131.048 123.367 135.139C128.472 141.291 136.627 138.954 138.225 131.038C139.668 123.861 138.752 112.049 132.178 108.88C130.735 108.175 129.165 107.918 127.615 108.134C126.065 108.35 124.587 109.031 123.32 110.114C122.054 111.197 121.042 112.646 120.379 114.323C119.716 116 119.424 117.85 119.532 119.698V119.698Z" fill="#E58A7B"/>
<path d="M120.197 110.736C116.828 112.192 112.336 111.105 114.098 123.44C115.964 136.503 113.096 140.799 113.096 140.799C113.096 140.799 125.872 144.029 138.916 140.604C138.916 140.604 134.934 132.34 136.048 126.249C137.474 118.559 136.351 115.719 136.351 115.719C136.351 115.719 124.931 108.685 120.197 110.736Z" fill="#263238"/>
<path d="M134.449 123.85C134.453 125.365 134.818 126.848 135.503 128.126C136.419 129.787 137.499 129.151 137.766 127.388C138.008 125.839 137.827 123.102 136.661 122.035C135.494 120.969 134.466 122.015 134.449 123.85Z" fill="#E58A7B"/>
<path d="M117.269 112.079C116.301 108.849 120.914 103.877 130.676 105.927C140.437 107.978 140.861 117.626 140.861 117.626L138.891 114.837L138.977 117.77L128.948 120.056L117.269 112.079Z" fill="#263238"/>
<path d="M118.098 147.812C118.04 147.344 118.139 146.868 118.373 146.485C118.607 146.101 118.958 145.842 119.351 145.761C122.391 145.167 129.302 143.957 132.775 144.531C135.367 144.962 136.04 146.746 136.153 148.212C136.17 148.469 136.141 148.727 136.068 148.969C135.994 149.212 135.878 149.433 135.727 149.617C135.575 149.802 135.392 149.946 135.19 150.039C134.988 150.133 134.771 150.174 134.555 150.16L119.541 149.36C119.187 149.339 118.85 149.174 118.587 148.891C118.324 148.609 118.151 148.228 118.098 147.812V147.812Z" fill="#5B2E4F"/>
<path opacity="0.6" d="M118.098 147.812C118.04 147.344 118.139 146.868 118.373 146.485C118.607 146.101 118.958 145.842 119.351 145.761C122.391 145.167 129.302 143.957 132.775 144.531C135.367 144.962 136.04 146.746 136.153 148.212C136.17 148.469 136.141 148.727 136.068 148.969C135.994 149.212 135.878 149.433 135.727 149.617C135.575 149.802 135.392 149.946 135.19 150.039C134.988 150.133 134.771 150.174 134.555 150.16L119.541 149.36C119.187 149.339 118.85 149.174 118.587 148.891C118.324 148.609 118.151 148.228 118.098 147.812V147.812Z" fill="black"/>
<path d="M126.779 326.939L132.351 331.533L141.672 316.532L136.1 311.949L126.779 326.939Z" fill="#E58A7B"/>
<path d="M113.787 326.642L119.67 330.621L127.92 314.759L122.037 310.78L113.787 326.642Z" fill="#E58A7B"/>
<path d="M141.664 316.532L136.861 324.263L131.289 319.68L136.092 311.949L141.664 316.532Z" fill="#CF6F64"/>
<path d="M122.028 310.78L127.919 314.769L123.669 322.941L117.777 318.952L122.028 310.78Z" fill="#CF6F64"/>
<path d="M131.48 197.89C131.48 197.89 153.232 230.424 149.146 261.543C145.855 286.674 126.763 320.705 126.763 320.705L117.788 315.414C124.114 300.368 129.513 284.797 133.942 268.823C135.308 263.864 135.706 258.601 135.108 253.432C134.509 248.263 132.929 243.324 130.487 238.986C119.464 219.884 101.806 231.255 113.685 197.89H131.48Z" fill="#5B2E4F"/>
<path opacity="0.6" d="M131.48 197.89C131.48 197.89 153.232 230.424 149.146 261.543C145.855 286.674 126.763 320.705 126.763 320.705L117.788 315.414C124.114 300.368 129.513 284.797 133.942 268.823C135.308 263.864 135.706 258.601 135.108 253.432C134.509 248.263 132.929 243.324 130.487 238.986C119.464 219.884 101.806 231.255 113.685 197.89H131.48Z" fill="black"/>
<path opacity="0.4" d="M142.148 218.786L138.986 215.054C138.986 215.352 145.111 260.231 146.83 272.842C147.845 269.158 148.621 265.388 149.154 261.564C151.175 246.296 146.951 230.701 142.148 218.786Z" fill="black"/>
<path d="M141.19 197.89C141.19 197.89 167.382 238.781 168.125 263.296C168.738 283.803 139.618 323.535 139.618 323.535L131.152 317.034C131.152 317.034 148.196 288.817 152.489 265.768C150.831 242.923 115.758 197.89 115.758 197.89H141.19Z" fill="#5B2E4F"/>
<path opacity="0.6" d="M141.19 197.89C141.19 197.89 167.382 238.781 168.125 263.296C168.738 283.803 139.618 323.535 139.618 323.535L131.152 317.034C131.152 317.034 148.196 288.817 152.489 265.768C150.831 242.923 115.758 197.89 115.758 197.89H141.19Z" fill="black"/>
<path d="M108.786 149.094C105.987 149.884 103.301 161.962 103.301 161.962L114.246 170.637C114.246 170.637 117.891 161.08 116.613 156.897C115.291 152.539 112.302 148.1 108.786 149.094Z" fill="#5B2E4F"/>
<path opacity="0.2" d="M110.928 156.876L110.168 167.407L114.237 170.647C115.36 167.645 116.192 164.501 116.716 161.275L110.928 156.876Z" fill="black"/>
<path d="M144.428 149.329C144.428 149.329 147.659 150.673 141.189 197.879H113.666C114.132 184.55 114.141 176.347 108.785 149.094C112.639 148.151 116.545 147.541 120.473 147.269C124.635 146.914 128.812 146.914 132.973 147.269C138.346 147.853 144.428 149.329 144.428 149.329Z" fill="#5B2E4F"/>
<path d="M147.228 156.876C147.85 158.927 148.506 161.131 149.197 163.254C149.888 165.376 150.545 167.56 151.245 169.714L153.361 176.153L153.897 177.762L154.173 178.562L154.303 178.962C154.303 179.034 154.303 179.034 154.303 179.024C154.145 178.759 153.938 178.542 153.698 178.388C153.356 178.149 152.971 178.012 152.575 177.988C152.246 177.976 151.919 178.049 151.616 178.203C151.219 178.419 151.219 178.511 151.227 178.501C151.299 178.432 151.363 178.353 151.417 178.265C151.896 177.52 152.31 176.719 152.653 175.876C153.059 174.932 153.448 173.928 153.836 172.913C154.596 170.862 155.296 168.739 155.996 166.596C156.696 164.454 157.361 162.29 158.009 160.106L159.978 153.564L163.304 154.59C162.648 159.265 161.801 163.818 160.782 168.452C160.289 170.759 159.711 173.046 159.054 175.353C158.726 176.512 158.363 177.66 157.948 178.839C157.516 180.119 156.984 181.348 156.359 182.51C156.129 182.901 155.875 183.271 155.599 183.617C155.157 184.183 154.622 184.633 154.026 184.94C153.498 185.209 152.925 185.335 152.35 185.309C151.707 185.28 151.079 185.058 150.528 184.663C149.877 184.181 149.337 183.515 148.955 182.725C148.826 182.458 148.714 182.192 148.636 181.997L148.472 181.607L148.143 180.808L147.487 179.218C146.623 177.086 145.759 174.932 145.008 172.769C144.256 170.606 143.461 168.411 142.718 166.207C141.975 164.002 141.31 161.798 140.68 159.419L147.228 156.876Z" fill="#E58A7B"/>
<path d="M144.43 149.329C147.739 150.262 151.462 161.869 151.462 161.869L141.622 171.805C141.622 171.805 135.256 159.152 136.543 154.979C137.882 150.631 140.111 148.109 144.43 149.329Z" fill="#5B2E4F"/>
<path d="M161.541 149.894L164.997 146.469L167.398 150.909L165.627 154.61C165.627 154.61 162.811 157.686 160.323 156.118C159.928 155.064 159.834 153.887 160.053 152.763C160.273 151.64 160.795 150.633 161.541 149.894V149.894Z" fill="#E58A7B"/>
<path d="M171.234 146.479L170.975 147.597L165.506 148.684L164.971 146.469L171.234 146.479Z" fill="#E58A7B"/>
<path d="M140.291 324.058L130.426 316.491L132.197 312.84L143.28 320.93L140.291 324.058Z" fill="#5B2E4F"/>
<path d="M123.531 330.087C122.665 329.961 121.833 329.611 121.095 329.061C121.064 329.049 121.038 329.025 121.019 328.994C121 328.963 120.99 328.925 120.99 328.887C120.99 328.849 121 328.811 121.019 328.78C121.038 328.749 121.064 328.725 121.095 328.713C121.362 328.61 123.686 327.759 124.36 328.415C124.436 328.49 124.493 328.587 124.527 328.697C124.56 328.807 124.568 328.926 124.55 329.041C124.538 329.225 124.487 329.403 124.4 329.558C124.314 329.712 124.196 329.837 124.058 329.923C123.896 330.027 123.715 330.084 123.531 330.087V330.087ZM121.587 328.959C122.667 329.615 123.531 329.851 123.945 329.605C124.036 329.545 124.112 329.459 124.166 329.355C124.221 329.251 124.252 329.132 124.256 329.01C124.256 328.846 124.256 328.774 124.179 328.733C123.816 328.385 122.52 328.651 121.57 328.959H121.587Z" fill="#263238"/>
<path d="M121.156 329.133C121.111 329.133 121.067 329.11 121.035 329.072C121.022 329.043 121.016 329.012 121.016 328.98C121.016 328.947 121.022 328.916 121.035 328.887C121.035 328.795 121.597 326.57 122.478 326.068C122.59 326.007 122.713 325.975 122.836 325.975C122.96 325.975 123.082 326.007 123.195 326.068C123.316 326.113 123.421 326.205 123.493 326.33C123.565 326.454 123.6 326.604 123.592 326.755C123.532 327.677 121.951 328.949 121.225 329.164L121.156 329.133ZM122.832 326.334C122.748 326.337 122.666 326.362 122.59 326.406C122.055 326.714 121.614 327.913 121.398 328.641C122.158 328.262 123.204 327.257 123.238 326.693C123.238 326.601 123.238 326.488 123.039 326.385C122.975 326.344 122.905 326.316 122.832 326.303V326.334Z" fill="#263238"/>
<path d="M135.858 334.516C134.882 334.516 133.526 333.03 132.783 332.117C132.764 332.086 132.754 332.048 132.754 332.009C132.754 331.971 132.764 331.933 132.783 331.902C132.8 331.869 132.824 331.842 132.853 331.824C132.882 331.806 132.915 331.797 132.947 331.799C133.293 331.799 136.29 332.332 136.714 333.337C136.758 333.427 136.782 333.53 136.782 333.634C136.782 333.739 136.758 333.842 136.714 333.932C136.65 334.088 136.554 334.223 136.435 334.324C136.316 334.424 136.177 334.487 136.031 334.506L135.858 334.516ZM133.353 332.261C134.442 333.511 135.401 334.209 135.945 334.127C136.04 334.112 136.131 334.07 136.209 334.003C136.288 333.937 136.351 333.849 136.394 333.747C136.413 333.712 136.424 333.671 136.424 333.629C136.424 333.587 136.413 333.546 136.394 333.511C136.169 332.958 134.571 332.486 133.353 332.261Z" fill="#263238"/>
<path d="M133.45 332.209C133.256 332.215 133.062 332.198 132.871 332.158C132.844 332.153 132.819 332.14 132.798 332.12C132.777 332.1 132.76 332.074 132.75 332.045C132.737 332.015 132.73 331.981 132.73 331.947C132.73 331.913 132.737 331.88 132.75 331.85C132.802 331.778 133.968 330.107 135.074 329.994C135.387 329.965 135.697 330.083 135.938 330.322C136.275 330.671 136.257 330.978 136.171 331.173C135.955 331.87 134.461 332.209 133.45 332.209ZM133.225 331.829C134.193 331.891 135.739 331.512 135.938 331.009C135.938 331.009 136.007 330.845 135.782 330.62C135.693 330.527 135.588 330.458 135.476 330.415C135.363 330.373 135.244 330.359 135.126 330.373C134.381 330.62 133.718 331.132 133.225 331.84V331.829Z" fill="#263238"/>
<path d="M121.39 328.026L114.064 325.565C113.938 325.519 113.802 325.531 113.683 325.597C113.563 325.663 113.468 325.78 113.416 325.924L110.946 332.517C110.888 332.686 110.861 332.867 110.866 333.049C110.871 333.232 110.909 333.41 110.977 333.574C111.044 333.738 111.141 333.883 111.259 333.999C111.377 334.115 111.515 334.201 111.663 334.25C114.254 335.049 115.498 335.275 118.721 336.372C120.707 337.028 123.541 338.248 126.279 339.171C129.018 340.094 129.933 336.926 128.871 336.249C124.068 333.234 123.688 331.122 122.375 328.866C122.14 328.458 121.791 328.16 121.39 328.026V328.026Z" fill="#5B2E4F"/>
<path d="M132.983 330.917L126.728 325.79C126.622 325.699 126.492 325.656 126.361 325.671C126.23 325.687 126.109 325.758 126.02 325.872L121.873 331.163C121.772 331.3 121.697 331.461 121.652 331.635C121.608 331.809 121.595 331.992 121.614 332.172C121.634 332.353 121.686 332.526 121.766 332.681C121.847 332.836 121.954 332.968 122.081 333.07C124.284 334.824 125.424 335.531 128.18 337.797C129.907 339.192 133.251 342.288 135.583 344.216C137.915 346.143 139.652 343.498 138.822 342.452C135.108 337.746 134.296 334.793 133.682 332.117C133.576 331.631 133.328 331.206 132.983 330.917Z" fill="#5B2E4F"/>
<path d="M127.91 321.381L116.637 314.727L117.803 311.097L129.845 318.11L127.91 321.381Z" fill="#5B2E4F"/>
<path d="M113.252 195.962L112.301 198.915C112.206 199.141 112.431 199.377 112.75 199.377H141.327C141.578 199.377 141.785 199.233 141.802 199.048L142.044 196.116C142.044 195.921 141.845 195.747 141.578 195.747H113.701C113.617 195.738 113.532 195.752 113.454 195.79C113.376 195.827 113.306 195.886 113.252 195.962V195.962Z" fill="#5B2E4F"/>
<path opacity="0.4" d="M113.252 195.962L112.301 198.915C112.206 199.141 112.431 199.377 112.75 199.377H141.327C141.578 199.377 141.785 199.233 141.802 199.048L142.044 196.116C142.044 195.921 141.845 195.747 141.578 195.747H113.701C113.617 195.738 113.532 195.752 113.454 195.79C113.376 195.827 113.306 195.886 113.252 195.962V195.962Z" fill="white"/>
<path d="M117.753 199.664H117.001C116.854 199.664 116.742 199.572 116.75 199.459L117.105 195.655C117.105 195.552 117.243 195.46 117.39 195.46H118.141C118.288 195.46 118.4 195.552 118.392 195.655L118.038 199.459C118.029 199.572 117.899 199.664 117.753 199.664Z" fill="#5B2E4F"/>
<path d="M135.375 199.664H134.632C134.485 199.664 134.373 199.572 134.381 199.459L134.727 195.655C134.727 195.552 134.874 195.46 135.021 195.46H135.764C135.91 195.46 136.031 195.552 136.014 195.655L135.668 199.459C135.625 199.572 135.53 199.664 135.375 199.664Z" fill="#5B2E4F"/>
<g style="mix-blend-mode:multiply">
<path d="M117.096 373.305C129.877 373.305 140.239 372.414 140.239 371.316C140.239 370.217 129.877 369.327 117.096 369.327C104.315 369.327 93.9531 370.217 93.9531 371.316C93.9531 372.414 104.315 373.305 117.096 373.305Z" fill="#F5F5F5"/>
</g>
<path d="M131.196 368.506C127.101 367.091 122.557 365.276 119.81 363.379C119.732 363.318 119.646 363.287 119.568 363.236V341.232H127.852C128.481 341.188 129.072 340.86 129.504 340.316C129.936 339.772 130.177 339.052 130.177 338.305C130.177 337.557 129.936 336.837 129.504 336.293C129.072 335.749 128.481 335.421 127.852 335.377H119.611V235.079H114.635V335.377H106.403C106.067 335.354 105.73 335.412 105.413 335.548C105.097 335.685 104.807 335.896 104.562 336.171C104.317 336.445 104.122 336.775 103.988 337.142C103.855 337.509 103.786 337.905 103.786 338.305C103.786 338.704 103.855 339.1 103.988 339.467C104.122 339.834 104.317 340.164 104.562 340.439C104.807 340.713 105.097 340.924 105.413 341.061C105.73 341.197 106.067 341.256 106.403 341.232H114.635V363.205C114.558 363.205 114.48 363.287 114.402 363.348C111.612 365.276 107.103 367.091 103.008 368.475C102.731 368.574 102.494 368.788 102.338 369.077C102.183 369.366 102.12 369.712 102.161 370.051C102.201 370.391 102.343 370.702 102.56 370.928C102.777 371.154 103.056 371.281 103.345 371.285H130.859C131.135 371.262 131.396 371.128 131.599 370.905C131.802 370.681 131.934 370.382 131.974 370.057C132.013 369.732 131.957 369.4 131.816 369.118C131.674 368.836 131.455 368.62 131.196 368.506Z" fill="#E0E0E0"/>
<path d="M132.463 224.867H101.744C99.273 224.867 97.2695 227.245 97.2695 230.178V241.016C97.2695 243.949 99.273 246.327 101.744 246.327H132.463C134.935 246.327 136.938 243.949 136.938 241.016V230.178C136.938 227.245 134.935 224.867 132.463 224.867Z" fill="#666666"/>
<path d="M101.461 246.337V248.204C101.461 249.742 102.869 250.992 104.597 250.992H129.649C131.376 250.992 132.785 249.742 132.785 248.204V246.337H101.461Z" fill="#5B2E4F"/>
<path opacity="0.3" d="M101.461 246.337V248.204C101.461 249.742 102.869 250.992 104.597 250.992H129.649C131.376 250.992 132.785 249.742 132.785 248.204V246.337H101.461Z" fill="white"/>
</svg>
