<svg width="481" height="453" viewBox="0 0 481 453" fill="none" xmlns="http://www.w3.org/2000/svg">
<path d="M70.4002 418.948C164.274 464.344 316.466 464.358 410.34 418.948C504.214 373.539 504.2 299.944 410.34 254.549C316.48 209.153 164.274 209.153 70.4002 254.549C-23.4735 299.944 -23.4599 373.553 70.4002 418.948Z" fill="#F5F5F5"/>
<path d="M410.012 385.399C427.301 385.399 441.317 378.623 441.317 370.263C441.317 361.903 427.301 355.126 410.012 355.126C392.723 355.126 378.707 361.903 378.707 370.263C378.707 378.623 392.723 385.399 410.012 385.399Z" fill="#EBEBEB"/>
<path d="M63.2773 372.434L74.3526 365.951C80.5362 360.83 85.2427 354.111 87.9752 346.501C91.3945 336.936 90.9177 329.665 88.4656 326.015C85.455 321.523 77.6493 322.311 77.3359 331.766C76.682 350.4 71.3283 363.324 63.2773 372.434Z" fill="#9BA59F"/>
<path opacity="0.2" d="M63.2773 372.434L74.3526 365.951C80.5362 360.83 85.2427 354.111 87.9752 346.501C91.3945 336.936 90.9177 329.665 88.4656 326.015C85.455 321.523 77.6493 322.311 77.3359 331.766C76.682 350.4 71.3283 363.324 63.2773 372.434Z" fill="black"/>
<path d="M63.2763 373.125C63.1321 373.123 62.9921 373.075 62.8766 372.988C62.7611 372.9 62.6761 372.777 62.6336 372.637C62.5912 372.497 62.5937 372.348 62.6406 372.209C62.6876 372.071 62.7766 371.951 62.8949 371.867C88.5055 353.897 83.5468 328.836 83.4923 328.587C83.4735 328.496 83.4725 328.402 83.4894 328.311C83.5063 328.22 83.5407 328.133 83.5907 328.055C83.6406 327.978 83.7052 327.911 83.7806 327.859C83.8561 327.806 83.941 327.769 84.0304 327.75C84.1199 327.731 84.2121 327.73 84.302 327.747C84.3918 327.765 84.4774 327.8 84.5539 327.85C84.6305 327.901 84.6964 327.966 84.748 328.043C84.7996 328.12 84.8358 328.206 84.8546 328.296C84.8546 328.559 90.0857 354.478 63.7122 373.001C63.5842 373.09 63.4311 373.133 63.2763 373.125Z" fill="white"/>
<path d="M41.0852 385.441C41.0852 385.441 37.23 382.262 38.1563 377.949C39.0827 373.636 41.5756 370.54 37.3117 364.983C33.0478 359.426 31.8627 352.017 36.9575 348.008C40.84 344.898 46.9021 349.294 49.0817 341.097C50.6892 335.097 50.1442 321.813 57.6776 317.39C65.2109 312.966 69.938 319.629 68.7528 328.642C67.7175 336.701 66.2462 344.456 67.3905 346.612C69.5974 350.759 73.3709 350.192 73.1938 357.767C73.0439 364.817 66.4642 370.651 66.4642 370.651L41.0852 385.441Z" fill="#9BA59F"/>
<path d="M53.74 378.682C53.5735 378.68 53.4131 378.618 53.2881 378.506C53.163 378.395 53.0817 378.241 53.0589 378.074C51.1108 361.693 55.7834 333.411 59.5977 325.007C59.6298 324.913 59.6813 324.828 59.7485 324.757C59.8158 324.685 59.8974 324.63 59.9877 324.593C60.0781 324.556 60.1752 324.54 60.2724 324.544C60.3696 324.549 60.4647 324.574 60.5513 324.62C60.6326 324.657 60.7058 324.71 60.7665 324.776C60.8271 324.843 60.8741 324.921 60.9046 325.006C60.935 325.091 60.9484 325.181 60.9439 325.271C60.9394 325.362 60.9171 325.45 60.8783 325.532C57.1048 333.826 52.5957 362.191 54.462 377.853C54.4811 378.034 54.4289 378.216 54.3166 378.358C54.2043 378.501 54.0411 378.592 53.8626 378.613L53.74 378.682Z" fill="white"/>
<path d="M53.3735 365.923C53.2692 365.928 53.1656 365.905 53.0738 365.854C48.3467 363.518 45.3497 355.183 45.2271 354.796C45.1937 354.71 45.1777 354.618 45.1799 354.525C45.1821 354.433 45.2026 354.342 45.2401 354.258C45.2775 354.174 45.3313 354.098 45.3981 354.035C45.4649 353.972 45.5435 353.924 45.6291 353.892C45.7148 353.861 45.8058 353.847 45.8967 353.852C45.9876 353.857 46.0767 353.88 46.1586 353.921C46.2405 353.961 46.3136 354.018 46.3736 354.087C46.4335 354.157 46.4791 354.238 46.5076 354.326C46.5076 354.409 49.4365 362.481 53.6731 364.569C53.8121 364.637 53.9241 364.751 53.9907 364.892C54.0574 365.034 54.0747 365.194 54.0398 365.347C54.005 365.499 53.9201 365.635 53.799 365.733C53.6779 365.83 53.5279 365.882 53.3735 365.882V365.923Z" fill="white"/>
<path d="M53.2903 371.453C53.1538 371.453 53.0206 371.411 52.9085 371.332C52.7965 371.252 52.711 371.14 52.6637 371.011C52.5959 370.842 52.5965 370.653 52.6654 370.484C52.7343 370.316 52.8658 370.182 53.0315 370.112C60.9871 366.877 65.9458 357.27 66.0003 357.16C66.0834 356.997 66.2269 356.874 66.3994 356.818C66.5718 356.762 66.759 356.778 66.9198 356.862C67.0806 356.947 67.2017 357.092 67.2567 357.267C67.3116 357.442 67.2958 357.632 67.2127 357.796C66.9947 358.21 61.9679 367.969 53.59 371.398C53.4967 371.443 53.3933 371.462 53.2903 371.453Z" fill="white"/>
<path d="M331.368 297.084C331.368 297.084 325.415 287.297 324.83 276.667C324.244 266.037 326.546 261.613 329.707 260.342C332.867 259.07 333.112 262.982 334.733 265.29C336.354 267.599 339.665 266.286 340.891 259.084C342.117 251.882 346.585 239.731 355.876 237.367C366.093 234.796 360.616 246.961 358.042 251.702C355.467 256.444 353.478 262.913 355.167 264.668C356.856 266.424 359.486 263.175 361.979 266.189C365.016 269.824 355.576 282.915 350.154 286.081L331.368 297.084Z" fill="#9BA59F"/>
<path d="M339.529 292.978C339.44 292.974 339.352 292.953 339.271 292.915C339.189 292.876 339.116 292.823 339.056 292.756C338.995 292.689 338.948 292.611 338.917 292.525C338.886 292.44 338.872 292.35 338.876 292.259C339.798 275.159 345.053 258.59 354.133 244.154C354.184 244.079 354.25 244.015 354.327 243.966C354.403 243.918 354.489 243.885 354.578 243.871C354.667 243.857 354.758 243.861 354.845 243.884C354.933 243.906 355.015 243.946 355.087 244.002C355.229 244.11 355.325 244.27 355.353 244.448C355.381 244.626 355.339 244.808 355.236 244.956C346.319 259.18 341.159 275.494 340.251 292.328C340.246 292.419 340.223 292.508 340.184 292.589C340.145 292.671 340.09 292.745 340.023 292.805C339.956 292.865 339.878 292.912 339.793 292.941C339.709 292.971 339.619 292.983 339.529 292.978Z" fill="white"/>
<path d="M340.307 284.808C340.193 284.807 340.081 284.778 339.98 284.725C336.166 282.582 334.054 276.224 333.973 275.961C333.943 275.875 333.93 275.784 333.935 275.692C333.94 275.601 333.962 275.512 334.002 275.429C334.041 275.347 334.096 275.273 334.163 275.213C334.231 275.152 334.31 275.106 334.395 275.076C334.567 275.02 334.753 275.034 334.914 275.117C335.075 275.2 335.197 275.345 335.253 275.519C335.253 275.519 337.297 281.642 340.702 283.509C340.856 283.601 340.97 283.751 341.018 283.926C341.066 284.101 341.046 284.288 340.961 284.449C340.899 284.568 340.804 284.665 340.688 284.729C340.572 284.793 340.439 284.821 340.307 284.808Z" fill="white"/>
<path d="M340.974 280.62C340.823 280.618 340.677 280.566 340.559 280.471C340.44 280.376 340.357 280.243 340.32 280.095C340.298 280.007 340.293 279.917 340.306 279.828C340.318 279.738 340.348 279.653 340.394 279.575C340.44 279.498 340.5 279.431 340.572 279.378C340.643 279.324 340.725 279.286 340.811 279.265C350.646 276.736 354.052 271.51 354.079 271.455C354.128 271.378 354.19 271.311 354.264 271.259C354.338 271.206 354.421 271.169 354.509 271.149C354.597 271.129 354.688 271.127 354.776 271.143C354.865 271.158 354.95 271.192 355.026 271.241C355.102 271.29 355.168 271.354 355.22 271.428C355.271 271.503 355.308 271.588 355.328 271.677C355.347 271.766 355.349 271.858 355.334 271.948C355.318 272.038 355.286 272.124 355.237 272.202C355.087 272.437 351.545 277.924 341.151 280.606L340.974 280.62Z" fill="white"/>
<path d="M183.157 275.602C183.157 275.602 170.093 272.367 169.412 247.541C168.69 220.751 172.613 189.483 157.151 186.954C141.69 184.424 133.107 203.541 133.298 225.866C133.475 245.412 141.24 287.849 183.102 296.171L183.157 275.602Z" fill="#9BA59F"/>
<path d="M183.154 293.628H183.032C173.619 291.886 165.949 286.619 160.241 277.994C143.322 252.379 148.648 204.551 150.406 196.202C150.445 196.024 150.55 195.868 150.7 195.768C150.85 195.667 151.033 195.63 151.209 195.663C151.386 195.705 151.539 195.815 151.638 195.97C151.737 196.124 151.773 196.311 151.741 196.492C150.01 204.786 144.711 252.006 161.372 277.22C163.797 281.13 166.996 284.486 170.767 287.075C174.538 289.664 178.798 291.429 183.277 292.259C183.366 292.276 183.451 292.31 183.526 292.36C183.602 292.41 183.667 292.475 183.718 292.551C183.768 292.627 183.804 292.713 183.822 292.802C183.84 292.892 183.84 292.985 183.822 293.075C183.793 293.232 183.71 293.374 183.588 293.475C183.466 293.576 183.312 293.63 183.154 293.628Z" fill="white"/>
<path d="M183.155 357.339C169.655 359.191 147.736 359.163 135.08 349.045C122.425 338.926 125.068 330.218 129.931 326.582C134.794 322.946 139.017 318.8 130.653 310.727C122.289 302.654 108.857 289.688 104.498 270.238C100.138 250.789 102.291 238.625 110.846 234.575C119.142 230.649 121.335 236.897 126.416 249.78C131.498 262.663 142.927 251.619 152.708 255.641C162.489 259.664 162.094 267.626 162.707 274.468C163.32 281.311 166.549 283.205 172.093 283.205C177.638 283.205 183.155 286.439 183.155 292.881V357.339Z" fill="#9BA59F"/>
<path d="M183.155 334.752C183.097 334.765 183.036 334.765 182.978 334.752C182.392 334.586 168.429 330.466 148.09 311.515C126.43 291.333 116.213 261.06 116.104 260.756C116.052 260.582 116.068 260.394 116.15 260.231C116.231 260.069 116.371 259.945 116.54 259.885C116.71 259.828 116.895 259.84 117.056 259.921C117.217 260.001 117.34 260.142 117.398 260.313C117.494 260.618 127.615 290.559 149.017 310.492C169.069 329.195 183.196 333.383 183.346 333.425C183.432 333.45 183.512 333.492 183.581 333.549C183.651 333.606 183.709 333.676 183.752 333.756C183.795 333.835 183.822 333.923 183.832 334.013C183.842 334.103 183.834 334.194 183.809 334.282C183.765 334.421 183.677 334.542 183.559 334.627C183.441 334.712 183.299 334.756 183.155 334.752Z" fill="white"/>
<path d="M153.771 316.325C153.634 316.327 153.5 316.286 153.388 316.207C153.275 316.127 153.19 316.014 153.145 315.883C148.772 304.493 147.777 280.122 147.695 279.085C147.692 278.903 147.758 278.726 147.88 278.592C148.001 278.458 148.17 278.377 148.349 278.367C148.527 278.369 148.698 278.438 148.829 278.561C148.959 278.683 149.041 278.85 149.058 279.03C149.058 279.279 150.079 304.202 154.371 315.385C154.403 315.471 154.419 315.562 154.417 315.653C154.415 315.745 154.395 315.835 154.358 315.918C154.321 316.002 154.269 316.077 154.203 316.14C154.137 316.203 154.06 316.252 153.976 316.284C153.91 316.308 153.841 316.322 153.771 316.325Z" fill="white"/>
<path d="M153.661 332.705C152.405 332.715 151.15 332.651 149.901 332.512C149.812 332.501 149.725 332.472 149.647 332.427C149.568 332.383 149.499 332.323 149.443 332.251C149.388 332.179 149.347 332.096 149.322 332.008C149.298 331.92 149.291 331.828 149.302 331.738C149.312 331.647 149.341 331.559 149.385 331.479C149.429 331.4 149.488 331.33 149.559 331.273C149.63 331.217 149.711 331.175 149.798 331.15C149.884 331.126 149.975 331.119 150.065 331.129C150.187 331.129 162.87 332.595 168.687 326.582C168.747 326.509 168.822 326.45 168.906 326.408C168.991 326.365 169.082 326.341 169.176 326.337C169.27 326.333 169.364 326.348 169.451 326.382C169.539 326.416 169.619 326.469 169.685 326.535C169.752 326.602 169.805 326.682 169.84 326.771C169.874 326.859 169.891 326.954 169.888 327.049C169.885 327.144 169.863 327.238 169.822 327.324C169.782 327.41 169.725 327.487 169.654 327.549C165.445 331.959 158.102 332.705 153.661 332.705Z" fill="white"/>
<path d="M196.614 375.834L324.667 300.801C324.949 300.701 325.193 300.514 325.366 300.266C325.539 300.018 325.632 299.722 325.632 299.419C325.632 299.116 325.539 298.82 325.366 298.572C325.193 298.324 324.949 298.137 324.667 298.037L312.829 291.125C312.096 290.751 311.286 290.556 310.465 290.556C309.645 290.556 308.835 290.751 308.102 291.125L180.008 366.088C179.726 366.189 179.482 366.376 179.309 366.624C179.136 366.871 179.043 367.167 179.043 367.471C179.043 367.774 179.136 368.07 179.309 368.318C179.482 368.565 179.726 368.752 180.008 368.853L191.887 375.765C192.615 376.15 193.422 376.357 194.242 376.369C195.063 376.381 195.876 376.198 196.614 375.834Z" fill="#E0E0E0"/>
<path d="M321.151 11.1082L205.686 78.7591C203.969 79.8958 202.541 81.4267 201.516 83.2279C200.491 85.0291 199.899 87.0498 199.787 89.1265V367.07C199.787 370.885 202.43 372.434 205.686 370.526L321.151 302.875C322.87 301.741 324.3 300.211 325.325 298.409C326.35 296.607 326.941 294.585 327.05 292.508V14.564C327.05 10.7488 324.421 9.20061 321.151 11.1082Z" fill="#455A64"/>
<path d="M205.687 78.7587L321.152 11.1078C324.067 9.39371 326.479 10.4581 326.969 13.4301C326.697 11.5615 326.038 9.77267 325.035 8.18115C324.032 6.58963 322.709 5.23152 321.152 4.19618L316.357 1.43153C314.529 0.490448 312.508 0 310.458 0C308.409 0 306.388 0.490448 304.56 1.43153L189.081 69.0272C187.341 70.1338 185.907 71.67 184.912 73.4921L201.518 83.1683C202.513 81.3607 203.948 79.8423 205.687 78.7587Z" fill="#37474F"/>
<path d="M183.156 357.339C183.268 359.416 183.86 361.436 184.885 363.237C185.91 365.039 187.338 366.57 189.055 367.706L193.864 370.471C195.528 371.316 197.349 371.794 199.209 371.875C201.068 371.956 202.923 371.638 204.653 370.941C201.928 372.019 199.762 370.429 199.762 367.015V89.1266C199.831 87.0411 200.426 85.0085 201.492 83.2241L184.886 73.5479C183.835 75.3187 183.24 77.3296 183.156 79.3951V357.339Z" fill="#263238"/>
<path d="M208.86 115.791L318.019 51.8587C319.98 50.7252 321.561 51.6513 321.561 53.9322V259.65C321.495 260.896 321.14 262.11 320.525 263.191C319.909 264.272 319.05 265.19 318.019 265.87L208.901 329.802C206.94 330.95 205.359 330.024 205.359 327.729V122.012C205.421 120.769 205.771 119.558 206.379 118.478C206.987 117.397 207.837 116.477 208.86 115.791Z" fill="white"/>
<path d="M263.418 55.4667C262.816 55.8681 262.315 56.4074 261.955 57.0413C261.595 57.6751 261.387 58.3858 261.348 59.116C261.348 60.4984 262.274 61.0098 263.418 60.3325C264.023 59.9336 264.526 59.3948 264.886 58.7605C265.246 58.1261 265.453 57.4142 265.489 56.6832C265.489 55.3423 264.563 54.8032 263.418 55.4667Z" fill="#37474F"/>
<path d="M263.42 307.672C261.038 309.253 259.057 311.38 257.637 313.883C256.217 316.385 255.398 319.192 255.246 322.076C255.246 327.37 258.911 329.526 263.42 326.872C265.8 325.291 267.781 323.163 269.201 320.66C270.621 318.158 271.44 315.352 271.593 312.468C271.621 307.174 267.942 305.018 263.42 307.672Z" fill="#37474F"/>
<path d="M243.817 76.8648C242.62 77.6712 241.626 78.752 240.916 80.0198C240.207 81.2876 239.8 82.707 239.73 84.1635C239.73 86.8452 241.583 87.9372 243.817 86.5963C245.027 85.7976 246.034 84.7202 246.756 83.4519C247.478 82.1836 247.895 80.7603 247.972 79.2977C247.972 76.616 246.119 75.5239 243.817 76.8648Z" fill="#37474F"/>
<path d="M253.992 75.9524C253.992 77.7495 255.354 78.4268 256.948 77.473L284.194 61.4795C285.038 60.9447 285.745 60.2152 286.259 59.3505C286.773 58.4858 287.078 57.5102 287.15 56.5032C287.15 54.72 285.787 54.0426 284.194 54.9964L256.948 70.9899C256.106 71.5234 255.4 72.2507 254.886 73.1128C254.372 73.975 254.066 74.9478 253.992 75.9524Z" fill="#37474F"/>
<path d="M192.365 124.693C193.332 125.332 194.136 126.193 194.714 127.207C195.291 128.22 195.625 129.358 195.689 130.527C195.689 132.683 194.204 133.554 192.365 132.476C191.402 131.834 190.6 130.972 190.025 129.959C189.45 128.946 189.118 127.81 189.055 126.642C189.055 124.5 190.54 123.629 192.365 124.693Z" fill="#37474F"/>
<path d="M192.365 150.654C193.332 151.293 194.136 152.154 194.714 153.168C195.291 154.181 195.625 155.318 195.689 156.487C195.689 158.63 194.204 159.501 192.365 158.436C191.402 157.795 190.6 156.933 190.025 155.92C189.45 154.907 189.118 153.77 189.055 152.603C189.055 150.447 190.54 149.576 192.365 150.654Z" fill="#37474F"/>
<path d="M191.328 125.219C192.295 125.858 193.099 126.719 193.677 127.732C194.254 128.746 194.588 129.883 194.652 131.052C194.652 133.195 193.167 134.066 191.328 133.001C190.361 132.362 189.556 131.501 188.979 130.488C188.401 129.474 188.067 128.337 188.004 127.168C188.018 125.011 189.502 124.182 191.328 125.219Z" fill="#455A64"/>
<path d="M191.328 151.165C192.296 151.806 193.102 152.669 193.68 153.685C194.257 154.701 194.59 155.841 194.652 157.013C194.652 159.155 193.167 160.026 191.328 158.948C190.359 158.311 189.552 157.451 188.975 156.437C188.397 155.423 188.064 154.284 188.004 153.114C188.018 150.972 189.502 150.101 191.328 151.165Z" fill="#455A64"/>
<path d="M343.656 60.4427C343.656 58.148 342.076 57.2219 340.114 58.3692L327.05 66.0134L230.997 122.302C229.965 122.982 229.107 123.9 228.491 124.981C227.876 126.062 227.521 127.275 227.455 128.522V334.184C227.455 336.479 229.035 337.405 230.997 336.258L327.091 279.956L340.114 272.325C341.146 271.645 342.005 270.727 342.62 269.646C343.236 268.565 343.591 267.352 343.656 266.105V60.4427Z" fill="white"/>
<path d="M345.02 60.4427C345.106 59.7495 344.988 59.046 344.682 58.4203C344.376 57.7945 343.894 57.2743 343.298 56.9246C342.702 56.575 342.018 56.4115 341.33 56.4545C340.643 56.4975 339.984 56.7452 339.435 57.1666L326.97 64.4791L230.317 121.154C229.073 121.951 228.038 123.044 227.302 124.337C226.567 125.63 226.152 127.085 226.094 128.577V334.184C226.039 334.874 226.17 335.567 226.472 336.187C226.775 336.808 227.237 337.334 227.811 337.709C228.298 337.997 228.854 338.145 229.418 338.138C230.217 338.112 230.995 337.879 231.679 337.46L328.4 280.785L340.838 273.5C342.075 272.695 343.104 271.601 343.839 270.31C344.574 269.018 344.993 267.567 345.061 266.077L345.02 60.4427ZM326.997 278.421L325.88 279.085L230.372 335.041C230.211 335.166 230.025 335.254 229.827 335.297C229.629 335.34 229.424 335.337 229.227 335.29C229.05 335.179 228.873 334.792 228.873 334.157V128.522C228.944 127.518 229.238 126.544 229.733 125.673C230.229 124.801 230.913 124.055 231.734 123.49L327.147 67.5064L340.77 59.5027C340.93 59.3776 341.116 59.2903 341.314 59.2473C341.512 59.2042 341.717 59.2065 341.914 59.2539C342.091 59.3645 342.268 59.7516 342.268 60.3874V266.105C342.198 267.108 341.903 268.083 341.408 268.954C340.912 269.826 340.228 270.572 339.407 271.136L326.97 278.421H326.997Z" fill="#5B2E4F"/>
<path d="M285.555 108.23C297.815 101.07 307.692 106.848 307.692 121.21C307.692 135.572 297.774 153.004 285.555 160.109C273.335 167.214 263.418 161.491 263.418 147.142C263.418 132.794 273.335 115.404 285.555 108.23Z" fill="#5B2E4F"/>
<path d="M285.556 119.51C289.52 117.187 292.735 119.067 292.735 123.657C292.601 126.185 291.88 128.645 290.633 130.838C289.386 133.031 287.646 134.894 285.556 136.277C281.592 138.6 278.377 136.72 278.377 132.13C278.512 129.602 279.232 127.142 280.479 124.949C281.727 122.756 283.466 120.893 285.556 119.51Z" fill="#5B2E4F"/>
<path d="M299.546 144.281C299.546 136.65 294.274 133.554 287.749 137.369L283.662 139.761C277.151 143.576 271.865 152.865 271.865 160.496V162.555C275.639 163.813 280.379 163.136 285.488 160.108C291.147 156.566 295.932 151.758 299.478 146.05L299.546 144.281Z" fill="#5B2E4F"/>
<path opacity="0.7" d="M285.556 119.51C289.52 117.187 292.735 119.067 292.735 123.657C292.601 126.185 291.88 128.645 290.633 130.838C289.386 133.031 287.646 134.894 285.556 136.277C281.592 138.6 278.377 136.72 278.377 132.13C278.512 129.602 279.232 127.142 280.479 124.949C281.727 122.756 283.466 120.893 285.556 119.51Z" fill="white"/>
<path opacity="0.7" d="M299.546 144.281C299.546 136.65 294.274 133.554 287.749 137.369L283.662 139.761C277.151 143.576 271.865 152.865 271.865 160.496V162.555C275.639 163.813 280.379 163.136 285.488 160.108C291.147 156.566 295.932 151.758 299.478 146.05L299.546 144.281Z" fill="white"/>
<path d="M242.726 191.695L271.211 175.01C272.573 174.25 273.568 174.858 273.568 176.392V177.346C273.524 178.177 273.288 178.986 272.879 179.706C272.469 180.427 271.898 181.039 271.211 181.493L242.726 198.178C241.432 198.938 240.369 198.316 240.369 196.795V195.842C240.413 195.011 240.65 194.203 241.059 193.482C241.469 192.762 242.04 192.15 242.726 191.695Z" fill="#5B2E4F"/>
<path opacity="0.1" d="M242.726 191.695L271.211 175.01C272.573 174.25 273.568 174.858 273.568 176.392V177.346C273.524 178.177 273.288 178.986 272.879 179.706C272.469 180.427 271.898 181.039 271.211 181.493L242.726 198.178C241.432 198.938 240.369 198.316 240.369 196.795V195.842C240.413 195.011 240.65 194.203 241.059 193.482C241.469 192.762 242.04 192.15 242.726 191.695Z" fill="black"/>
<path d="M241.554 211.835L327.731 161.352C328.371 160.965 328.903 161.269 328.903 162.044V172.245C328.879 172.659 328.761 173.062 328.557 173.422C328.354 173.781 328.071 174.088 327.731 174.319L241.554 224.801C240.9 225.188 240.369 224.87 240.369 224.11V213.908C240.393 213.493 240.512 213.088 240.718 212.728C240.924 212.368 241.21 212.062 241.554 211.835Z" fill="#5B2E4F"/>
<path opacity="0.2" d="M241.554 211.835L327.731 161.352C328.371 160.965 328.903 161.269 328.903 162.044V172.245C328.879 172.659 328.761 173.062 328.557 173.422C328.354 173.781 328.071 174.088 327.731 174.319L241.554 224.801C240.9 225.188 240.369 224.87 240.369 224.11V213.908C240.393 213.493 240.512 213.088 240.718 212.728C240.924 212.368 241.21 212.062 241.554 211.835Z" fill="white"/>
<path d="M242.726 237.077L271.211 220.392C272.573 219.632 273.568 220.254 273.568 221.774V222.728C273.525 223.559 273.29 224.368 272.88 225.089C272.471 225.81 271.899 226.422 271.211 226.875L242.726 243.56C241.432 244.334 240.369 243.712 240.369 242.177V241.223C240.415 240.394 240.653 239.586 241.062 238.866C241.471 238.146 242.041 237.533 242.726 237.077Z" fill="#5B2E4F"/>
<path opacity="0.1" d="M242.726 237.077L271.211 220.392C272.573 219.632 273.568 220.254 273.568 221.774V222.728C273.525 223.559 273.29 224.368 272.88 225.089C272.471 225.81 271.899 226.422 271.211 226.875L242.726 243.56C241.432 244.334 240.369 243.712 240.369 242.177V241.223C240.415 240.394 240.653 239.586 241.062 238.866C241.471 238.146 242.041 237.533 242.726 237.077Z" fill="black"/>
<path d="M241.554 257.217L327.731 206.735C328.371 206.348 328.903 206.665 328.903 207.426V217.627C328.879 218.041 328.761 218.444 328.557 218.804C328.354 219.164 328.071 219.471 327.731 219.701L241.554 270.183C240.9 270.57 240.369 270.266 240.369 269.492V259.291C240.393 258.875 240.512 258.471 240.718 258.11C240.924 257.75 241.21 257.444 241.554 257.217Z" fill="#5B2E4F"/>
<path opacity="0.2" d="M241.554 257.217L327.731 206.735C328.371 206.348 328.903 206.665 328.903 207.426V217.627C328.879 218.041 328.761 218.444 328.557 218.804C328.354 219.164 328.071 219.471 327.731 219.701L241.554 270.183C240.9 270.57 240.369 270.266 240.369 269.492V259.291C240.393 258.875 240.512 258.471 240.718 258.11C240.924 257.75 241.21 257.444 241.554 257.217Z" fill="white"/>
<path d="M275.923 263.009L309.98 243.089C311.342 242.315 312.35 242.937 312.35 244.472V255.143C312.305 255.975 312.067 256.785 311.655 257.505C311.243 258.226 310.669 258.838 309.98 259.29L275.923 279.223C274.561 279.984 273.566 279.362 273.566 277.841V267.156C273.614 266.326 273.852 265.519 274.261 264.799C274.67 264.079 275.239 263.466 275.923 263.009Z" fill="#5B2E4F"/>
<path opacity="0.1" d="M275.923 263.009L309.98 243.089C311.342 242.315 312.35 242.937 312.35 244.472V255.143C312.305 255.975 312.067 256.785 311.655 257.505C311.243 258.226 310.669 258.838 309.98 259.29L275.923 279.223C274.561 279.984 273.566 279.362 273.566 277.841V267.156C273.614 266.326 273.852 265.519 274.261 264.799C274.67 264.079 275.239 263.466 275.923 263.009Z" fill="black"/>
<path d="M356.57 217.972C356.57 217.972 339.842 194.556 338.861 191.708C338.084 189.607 338.861 186.483 339.106 185.031C339.351 183.58 339.569 180.345 339.814 179.502C340.223 177.926 338.221 178.244 337.09 179.682C335.959 181.119 335.578 183.995 334.992 184.465C334.406 184.935 329.952 178.341 327.622 175.3C325.293 172.259 323.835 170.406 322.405 171.54C321.383 172.355 322.146 174.125 323.835 176.724C324.822 178.123 325.731 179.577 326.56 181.078C326.818 181.645 325.429 181.686 324.68 182.861C324.094 183.773 324.68 185.252 323.862 185.957C323.359 186.346 323.015 186.909 322.894 187.538C322.773 188.168 322.885 188.82 323.208 189.372C324.725 191.788 326.68 193.89 328.971 195.565C331.477 197.32 332.485 197.942 333.97 200.334C335.455 202.725 348.778 227.151 349.677 228.616C350.576 230.081 352.306 233.067 354.936 233.15C357.565 233.233 379.089 214.433 380.192 213.493C383.734 210.494 384.865 210.065 385.464 212.761C385.671 213.719 385.826 214.688 385.927 215.664C386.349 219.092 388.652 231.339 388.652 231.339C388.652 231.339 399.55 236.689 408.5 234.104C417.45 231.519 420.474 227.662 420.474 227.662L415.992 220.253C417.205 217.198 422.804 204.812 424.615 196.145L396.553 191.542C395.981 191.418 395.054 191.183 393.828 190.865C392.289 190.45 388.379 189.082 385.423 191.708C375.778 200.237 356.597 217.972 356.597 217.972" fill="#FFA8A7"/>
<path d="M412.206 361.651L407.18 368.743C409.464 369.825 411.96 370.368 414.481 370.332C418.991 370.498 420.23 368.95 420.394 368.646C421.157 366.987 419.971 364.001 419.644 361.43L412.206 361.651Z" fill="#37474F"/>
<path d="M407.465 365.342C407.465 365.342 401.362 364.941 397.153 364.415C392.943 363.89 389.606 365.964 390.587 367.719C391.567 369.475 393.897 370.94 397.52 372.17C400.613 373.235 404.332 373.995 407.547 374.935C410.762 375.875 412.996 377.105 414.862 376.442C416.946 375.709 417.846 374.866 417.668 373.318C417.214 371.115 416.65 368.938 415.979 366.793L407.465 365.342Z" fill="#37474F"/>
<path d="M420.392 354.532C420.392 354.532 419.629 360.974 419.574 362.356C419.52 363.739 413.376 364.181 412.204 361.651L412.014 353.772L420.392 354.532Z" fill="#F28F8F"/>
<path d="M414.207 358.485L416.401 368.272C416.401 368.272 416.605 369.461 411.592 370.221C406.579 370.982 398.705 367.553 397.356 366.862C396.008 366.171 395.858 364.775 400.789 365.051C405.721 365.328 407.464 365.342 407.464 365.342L405.857 361.015L414.207 358.485Z" fill="#FFA8A7"/>
<path d="M424.532 196.063L428.006 195.081C428.006 195.081 435.267 218.401 436.071 220.654C436.874 222.907 437.787 225.285 436.22 228.063C434.354 231.367 424.532 244.651 424.532 244.651L418.293 238.458L425.377 225.299L419.11 212.443L424.532 196.063Z" fill="#F28F8F"/>
<path d="M388.857 165.776C388.043 164.224 387.629 162.489 387.655 160.731C387.682 158.974 388.147 157.252 389.007 155.726C392.467 149.215 400.177 146.05 409.359 147.253C413.609 147.819 418.622 151.399 421.361 156.749C424.385 162.679 424.671 174.623 425.447 179.143L388.857 165.776Z" fill="#37474F"/>
<path d="M388.613 168.333C388.613 168.333 386.433 172.549 386.814 172.936C387.379 173.271 387.997 173.505 388.64 173.627L388.613 168.333Z" fill="#FFA8A7"/>
<path d="M395.23 155.008C392.86 156.57 388.773 159.445 388.596 168.914C388.405 178.59 389.768 181.783 391.184 182.903C392.138 183.663 397.737 183.276 400.134 182.709C402.532 182.143 409.439 178.673 411.932 173.406C414.861 167.213 414.261 158.201 409.915 155.436C407.704 154.109 405.196 153.373 402.627 153.298C400.059 153.223 397.514 153.812 395.23 155.008Z" fill="#FFA8A7"/>
<path d="M420.392 227.607C424.588 234.243 428.566 240.048 429.438 247.541C431.236 263.285 425.351 281.283 424.084 292.936C426.466 296.251 427.84 300.201 428.035 304.299C428.035 309.123 420.392 354.532 420.392 354.532C420.392 354.532 414.834 356.246 412.014 353.772L406.77 270.238L409.494 260.064L420.392 227.607Z" fill="#5B2E4F"/>
<path opacity="0.2" d="M420.392 227.607C424.588 234.243 428.566 240.048 429.438 247.541C431.236 263.285 425.351 281.283 424.084 292.936C426.466 296.251 427.84 300.201 428.035 304.299C428.035 309.123 420.392 354.532 420.392 354.532C420.392 354.532 414.834 356.246 412.014 353.772L406.77 270.238L409.494 260.064L420.392 227.607Z" fill="black"/>
<path d="M406.77 270.239L409.494 260.065C414.711 258.671 419.742 256.643 424.479 254.024C424.479 254.024 421.645 259.263 413.499 262.138L409.29 275.201L408.936 305.128L406.77 270.239Z" fill="#5B2E4F"/>
<path opacity="0.3" d="M406.77 270.239L409.494 260.065C414.711 258.671 419.742 256.643 424.479 254.024C424.479 254.024 421.645 259.263 413.499 262.138L409.29 275.201L408.936 305.128L406.77 270.239Z" fill="black"/>
<path d="M420.393 227.607C422.64 231.34 428.008 237.698 426.863 243.822C425.501 251.231 421.551 256.443 409.535 260.064L398.256 301.534C398.256 301.534 404.127 307.063 405.925 312.413C407.724 317.763 414.208 358.513 414.208 358.513C414.208 358.513 412.192 361.845 405.857 361.043C405.857 361.043 383.775 309.897 382.222 306.566C380.337 303.192 379.677 299.255 380.356 295.438C381.051 290.075 388.529 231.367 388.529 231.367L420.393 227.607Z" fill="#5B2E4F"/>
<path opacity="0.2" d="M420.393 227.607C422.64 231.34 428.008 237.698 426.863 243.822C425.501 251.231 421.551 256.443 409.535 260.064L398.256 301.534C398.256 301.534 404.127 307.063 405.925 312.413C407.724 317.763 414.208 358.513 414.208 358.513C414.208 358.513 412.192 361.845 405.857 361.043C405.857 361.043 383.775 309.897 382.222 306.566C380.337 303.192 379.677 299.255 380.356 295.438C381.051 290.075 388.529 231.367 388.529 231.367L420.393 227.607Z" fill="black"/>
<path d="M424.534 196.062L396.471 191.459C395.899 191.335 394.973 191.1 393.747 190.782C393.747 190.782 392.548 208.641 385.342 212.733C385.519 213.59 385.669 214.544 385.805 215.636C386.227 219.064 388.529 231.311 388.529 231.311C388.529 231.311 399.428 236.661 408.378 234.076C417.328 231.491 420.352 227.634 420.352 227.634L415.87 220.225C417.123 217.143 422.763 204.757 424.534 196.062Z" fill="#263238"/>
<path opacity="0.7" d="M424.534 196.062L396.471 191.459C395.899 191.335 394.973 191.1 393.747 190.782C393.747 190.782 392.548 208.641 385.342 212.733C385.519 213.59 385.669 214.544 385.805 215.636C386.227 219.064 388.529 231.311 388.529 231.311C388.529 231.311 399.428 236.661 408.378 234.076C417.328 231.491 420.352 227.634 420.352 227.634L415.87 220.225C417.123 217.143 422.763 204.757 424.534 196.062Z" fill="white"/>
<path d="M417.136 217.281C413.409 219.552 409.504 221.508 405.461 223.128C409.131 223.054 412.723 222.047 415.909 220.198L417.136 217.281Z" fill="#5B2E4F"/>
<path d="M394.537 155.478C394.537 155.478 393.174 164.463 396.389 169.744C396.389 169.744 397.588 166.163 400.571 166.841C403.555 167.518 403.718 171.513 401.62 173.752C401.087 174.38 400.39 174.843 399.61 175.088C398.829 175.332 397.996 175.349 397.207 175.135C397.207 175.135 396.73 181.632 396.471 187.078C396.212 192.524 394.795 204.398 400.83 209.195C406.865 213.992 422.014 215.678 429.111 205.615C433.061 200.016 427.817 190.119 425.378 179.019C423.131 168.817 421.864 153.695 411.197 151.262C400.531 148.829 394.537 155.478 394.537 155.478Z" fill="#37474F"/>
<path d="M433.675 32.7138L431.427 34.0961C431.616 33.2846 431.721 32.4553 431.74 31.6217C431.74 26.991 428.539 25.1248 424.588 27.4748C423.386 28.2107 422.313 29.145 421.414 30.2394C421.414 24.019 417.11 21.4893 411.797 24.5995C408.997 26.4522 406.667 28.9485 404.996 31.8858C403.325 34.8231 402.36 38.1187 402.179 41.5054C402.179 41.8233 402.179 42.1274 402.179 42.4315C400.811 42.2568 399.425 42.58 398.269 43.3438C396.188 44.7203 394.455 46.5754 393.213 48.7586C391.97 50.9419 391.252 53.3917 391.118 55.9092C391.117 56.4944 391.176 57.0781 391.295 57.6509L390.096 58.3559C386.84 60.2635 384.197 63.9819 384.197 66.6498C384.197 69.3177 386.84 69.9536 390.096 68.0321L433.688 42.5283C436.944 40.6207 439.587 36.9022 439.587 34.2343C439.587 31.5664 436.931 30.7923 433.675 32.7138Z" fill="#EBEBEB"/>
</svg>
